<?xml version="1.0" encoding="utf-8"?>
<!-- Generator: Adobe Illustrator 16.0.0, SVG Export Plug-In . SVG Version: 6.00 Build 0)  -->
<!DOCTYPE svg PUBLIC "-//W3C//DTD SVG 1.1//EN" "http://www.w3.org/Graphics/SVG/1.1/DTD/svg11.dtd">
<svg version="1.1" id="Layer_1" xmlns="http://www.w3.org/2000/svg" xmlns:xlink="http://www.w3.org/1999/xlink" x="0px" y="0px"
	 width="2859.075px" height="522.051px" viewBox="0 0 2859.075 522.051" enable-background="new 0 0 2859.075 522.051"
	 xml:space="preserve">
<g>
	<path fill="#00E676" d="M206.417,239.114c15.897,0,28.432-13.005,28.432-28.412V76.843c0-15.881-12.532-28.396-28.432-28.396
		c-15.897,0-28.412,13.006-28.412,28.394v133.86C178.005,226.581,191.009,239.114,206.417,239.114z"/>
	<path fill="#00E676" d="M334.491,129.811c-2.891-2.891-6.24-5.765-9.149-8.185c-12.042-9.622-30.342-7.694-39.945,4.33
		c-3.855,5.311-6.293,11.567-6.293,17.825c0,8.186,3.838,15.88,10.586,21.174c0.999,0.963,1.454,1.455,1.945,1.929
		c0.454,0.489,1.453,1.456,2.401,2.42c33.216,25.993,52.006,65.483,51.515,107.849c0,76.563-62.102,138.678-138.662,138.678
		c-76.545,0-138.663-62.117-138.663-138.678c-0.492-42.365,18.771-81.855,52.006-108.34c0.964-0.963,1.928-1.929,2.401-2.399
		c0.491-0.491,0.964-0.964,1.437-1.456l0.491-0.475c6.748-4.819,10.587-12.988,10.587-21.174
		c-0.471-15.426-13.478-27.939-28.886-27.939c-6.256,0-13.004,2.4-17.826,6.257c-2.891,2.42-6.24,5.292-9.131,8.185
		C35.469,166.884,10.93,220.817,10.93,277.625c0,107.867,87.621,195.979,195.961,195.979c107.848,0,195.96-87.623,195.96-195.979
		C402.851,220.819,377.839,166.884,334.491,129.811z"/>
	<path d="M764.233,141.813c-18.178-8.219-38.561-12.329-61.145-12.329c-39.428,0-71.569,13.632-96.428,40.896
		c-24.859,27.265-37.288,62.081-37.288,104.446v9.824c0,42.5,12.495,77.316,37.488,104.445
		c24.99,27.133,57.066,40.697,96.228,40.697c22.584,0,43.001-4.045,61.244-12.129s33.244-18.945,45.007-32.578V327.35h-43.503
		l-6.015,38.893c-5.212,5.748-12.599,10.293-22.152,13.633c-9.557,3.342-20.081,5.012-31.574,5.012
		c-24.858,0-44.104-9.287-57.736-27.865c-13.632-18.576-20.448-42.701-20.448-72.371v-10.225c0-29.67,6.847-53.727,20.548-72.17
		c13.698-18.444,33.245-27.666,58.638-27.666c11.895,0,22.219,1.673,30.974,5.012c8.752,3.342,16.003,7.888,21.751,13.633
		l6.015,38.891h43.503v-57.736C797.442,160.893,782.407,150.032,764.233,141.813z"/>
	<path d="M934.1,204.661c-31.944,0-56.969,10.325-75.077,30.974c-18.111,20.649-27.164,47.146-27.164,79.487v4.211
		c0,32.611,9.053,59.174,27.164,79.688c18.108,20.518,43.268,30.773,75.479,30.773c31.806,0,56.765-10.256,74.877-30.773
		c18.108-20.514,27.164-47.076,27.164-79.688v-4.211c0-32.477-9.056-59.004-27.164-79.588
		C991.266,214.955,966.176,204.661,934.1,204.661z M978.204,319.333c0,19.646-3.509,35.482-10.525,47.512
		s-18.077,18.043-33.178,18.043c-15.506,0-26.732-5.98-33.68-17.943c-6.951-11.959-10.425-27.83-10.425-47.611v-4.211
		c0-19.244,3.474-34.947,10.425-47.111c6.947-12.159,18.043-18.242,33.278-18.242c15.236,0,26.394,6.083,33.479,18.242
		c7.082,12.164,10.625,27.867,10.625,47.111V319.333z"/>
	<rect x="1082.717" y="112.844" width="58.538" height="43.904"/>
	<polygon points="1141.255,208.67 1051.442,208.67 1051.442,243.954 1082.717,249.968 1082.717,384.487 1054.449,390.5 
		1054.449,425.583 1169.321,425.583 1169.321,390.5 1141.255,384.487 	"/>
	<path d="M1396.724,290.063c0-29.4-6.149-50.986-18.443-64.753c-12.298-13.764-29.404-20.649-51.321-20.649
		c-13.1,0-24.928,3.076-35.484,9.223c-10.559,6.148-19.445,14.77-26.663,25.861l-2.605-31.074h-85.603v35.283l31.073,6.015v134.519
		l-28.066,6.014v35.082h110.261V390.5l-23.656-6.014V268.211c4.142-5.744,9.288-10.189,15.437-13.332
		c6.146-3.139,13.097-4.711,20.85-4.711c11.894,0,20.78,3.042,26.663,9.122c5.879,6.083,8.82,16.407,8.82,30.974v94.223
		l-25.059,6.014v35.082h111.864V390.5l-28.066-6.014V290.063z"/>
	<path d="M1633.348,273.825c13.631-5.344,24.021-13.332,31.174-23.957c7.146-10.625,10.725-22.685,10.725-36.186
		c0-26.594-9.623-46.575-28.869-59.941c-19.244-13.362-46.043-20.047-80.389-20.047h-98.633h-31.074v35.283l31.074,6.014v209.496
		l-31.074,6.014v35.082h143.539c33.811,0,59.941-7.182,78.385-21.551c18.443-14.365,27.666-35.516,27.666-63.449
		c0-16.17-4.379-30.403-13.131-42.701C1663.985,285.586,1650.854,277.568,1633.348,273.825z M1525.893,178.8h40.096
		c16.84,0,29.5,3.208,37.99,9.622c8.484,6.416,12.729,16.373,12.729,29.871c0,12.298-4.209,21.651-12.629,28.066
		s-20.449,9.623-36.086,9.623h-42.1V178.8z M1615.305,370.553c-8.154,6.75-19.982,10.123-35.484,10.123h-53.928v-84.198h58.338
		c14.967,0,25.928,3.778,32.879,11.327c6.947,7.552,10.424,18.479,10.424,32.777
		C1627.534,353.813,1623.456,363.805,1615.305,370.553z"/>
	<path d="M1805.62,204.661c-31.943,0-56.969,10.325-75.076,30.974c-18.111,20.649-27.164,47.146-27.164,79.487v4.211
		c0,32.611,9.053,59.174,27.164,79.688c18.107,20.518,43.268,30.773,75.479,30.773c31.805,0,56.764-10.256,74.877-30.773
		c18.107-20.514,27.164-47.076,27.164-79.688v-4.211c0-32.477-9.057-59.004-27.164-79.588
		C1862.786,214.955,1837.696,204.661,1805.62,204.661z M1849.725,319.333c0,19.646-3.51,35.482-10.525,47.512
		c-7.018,12.029-18.078,18.043-33.178,18.043c-15.506,0-26.732-5.98-33.68-17.943c-6.951-11.959-10.426-27.83-10.426-47.611v-4.211
		c0-19.244,3.475-34.947,10.426-47.111c6.947-12.159,18.043-18.242,33.277-18.242c15.236,0,26.395,6.083,33.48,18.242
		c7.082,12.164,10.625,27.867,10.625,47.111V319.333z"/>
	<path d="M2043.948,383.182c-3.006,0.336-6.514,0.502-10.523,0.502c-5.883,0-10.561-1.805-14.033-5.412
		c-3.477-3.609-5.213-9.623-5.213-18.043V249.768h38.09V208.67h-38.09v-53.125h-58.338v53.125h-31.875v41.098h31.875v110.66
		c0,24.059,5.445,41.633,16.34,52.725c10.891,11.096,26.428,16.641,46.609,16.641c7.482,0,14.434-0.502,20.85-1.504
		c6.414-1.002,12.895-2.506,19.445-4.512l-5.012-42.299C2050.329,382.28,2046.956,382.85,2043.948,383.182z"/>
	<polygon points="2243.584,168.977 2265.637,172.987 2213.715,348.401 2210.307,364.038 2209.104,364.038 2205.495,348 
		2153.774,172.987 2176.026,168.977 2176.026,133.694 2069.374,133.694 2069.374,168.977 2093.43,172.184 2179.633,425.583 
		2239.776,425.583 2325.78,172.184 2350.237,168.977 2350.237,133.694 2243.584,133.694 	"/>
	<path d="M2580.346,159.455c-19.314-17.172-45.678-25.761-79.088-25.761h-107.854h-31.074v35.283l31.074,6.014v209.496
		l-31.074,6.014v35.082h120.887V390.5l-31.275-6.014v-64.754h49.316c33.41,0,59.773-8.485,79.088-25.46
		c19.311-16.972,28.969-39.425,28.969-67.358C2609.315,199.118,2599.657,176.629,2580.346,159.455z M2538.247,261.295
		c-8.354,8.889-20.684,13.331-36.988,13.331h-49.316V178.8h49.316c16.305,0,28.635,4.579,36.988,13.732
		c8.352,9.155,12.529,20.749,12.529,34.782C2550.776,241.082,2546.598,252.409,2538.247,261.295z"/>
	<path d="M2823.186,291.065c-16.641-14.699-41.066-26.527-73.273-35.483c-22.453-7.083-38.26-13.798-47.412-20.147
		c-9.156-6.346-13.732-14.465-13.732-24.357c0-10.691,4.375-19.412,13.131-26.162c8.752-6.747,21.15-10.123,37.188-10.123
		c10.957,0,21.316,1.202,31.074,3.607c9.754,2.406,17.172,5.213,22.252,8.42l7.619,40.096h43.902v-59.742
		c-12.564-11.357-28.066-20.447-46.51-27.264s-38.891-10.225-61.344-10.225c-30.342,0.401-55.531,8.119-75.58,23.154
		c-20.047,15.036-30.07,34.382-30.07,58.037c0,23.926,8.887,42.77,26.662,56.534c17.773,13.767,43.971,25.661,78.586,35.685
		c19.914,6.014,33.846,12.429,41.799,19.245c7.951,6.815,11.928,15.837,11.928,27.063c0,10.961-4.178,19.715-12.529,26.262
		c-8.354,6.551-20.549,9.824-36.586,9.824c-12.43,0-23.689-1.57-33.779-4.711c-10.094-3.139-18.078-7.117-23.957-11.93
		l-6.215-41.498h-45.307v60.945c12.43,12.965,27.967,23.123,46.609,30.471c18.645,7.35,39.525,11.027,62.648,11.027
		c32.342,0,58.404-7.217,78.186-21.652c19.777-14.434,29.67-34.146,29.67-59.139
		C2848.145,325.081,2839.825,305.769,2823.186,291.065z"/>
</g>
</svg>
