<?xml version="1.0" encoding="utf-8"?>
<!-- Generator: Adobe Illustrator 16.0.0, SVG Export Plug-In . SVG Version: 6.00 Build 0)  -->
<!DOCTYPE svg PUBLIC "-//W3C//DTD SVG 1.1//EN" "http://www.w3.org/Graphics/SVG/1.1/DTD/svg11.dtd">
<svg version="1.1" id="Layer_1" xmlns="http://www.w3.org/2000/svg" xmlns:xlink="http://www.w3.org/1999/xlink" x="0px" y="0px"
	 width="200px" height="200px" viewBox="0 0 200 200" enable-background="new 0 0 200 200" xml:space="preserve">
<g id="Robot__x28_red_x29_" display="none">
	<g id="Robot__x28_fill_x29__1_" display="inline" opacity="0.2">
		<path fill="#FF23C0" d="M178.617,121.523c1.192-4.871,1.859-9.981,1.859-15.3c0-5.497-0.705-10.792-1.959-15.809
			c-2.154-8.552-3.871-9.557-2.639-2.794c0.747,4.031,1.15,8.166,1.15,12.403c0,7.375-0.344,14.048-1.01,20.096
			C175.033,128.968,176.597,129.803,178.617,121.523z"/>
		<path fill="#FF23C0" d="M20.928,90.415c-1.271,5.031-1.962,10.313-1.962,15.809c0,5.318,0.654,10.429,1.858,15.3
			c2.026,8.295,3.587,7.444,2.602-1.401c-0.664-6.034-1.013-12.709-1.013-20.083c0-4.243,0.409-8.373,1.154-12.404
			C24.797,80.857,23.093,81.862,20.928,90.415z"/>
		<path fill="#FF23C0" d="M99.735,30.345c-20.193,0-38.206,8.844-50.865,22.711c-11.327,12.396-18.397,28.797-18.397,46.957
			c0,12.945,1.073,23.486,3.086,32.065c2.023,8.672,4.522,12.505,3.896,9.13c-0.371-2.007-0.591-4.068-0.615-6.178
			c-0.437-10.724-0.642-17.964-0.871-26.229l-0.438-14.943c0-24.376,25.05-42.589,47.445-42.589h4.267h24.983h4.267
			c22.397,0,47.443,18.213,47.443,42.849l-0.425,14.655c-0.24,8.281-0.448,15.529-0.865,26.005c-0.016,2.216-0.25,4.372-0.645,6.464
			c-0.657,3.542,1.792-0.143,3.855-8.803c2.049-8.631,3.165-19.27,3.165-32.404c0-18.162-7.072-34.56-18.398-46.954
			C137.939,39.188,119.929,30.345,99.735,30.345z"/>
		<path fill="#FF23C0" d="M61.427,163.821c5.342,3.306,11.584,5.287,18.308,5.287c10.673,0,17.773,0,26.074,0
			c4.152,0,8.598,0,13.927,0c6.726,0,12.968-1.981,18.306-5.287c9.807-6.059,16.441-16.765,16.527-29.139
			c0.655-16.362,0.796-24.6,1.306-40.841c0-19.075-20.331-34.527-39.399-34.527c-6.402,0-11.244,0-16.048,0
			c-0.461,0-0.939,0-1.401,0c-4.803,0-9.66,0-16.052,0c-19.077,0-39.398,15.452-39.398,34.527
			c0.513,16.241,0.64,24.479,1.309,40.841C44.988,147.072,51.626,157.766,61.427,163.821z M120.543,98.961
			c2.053-1.339,4.355-2.323,6.996-2.323c7.189,0,13.019,5.821,13.019,13.016c0,7.188-5.829,13.012-13.019,13.012
			c-3.01,0-5.666-1.192-7.866-2.896c-3.05-2.379-5.149-5.935-5.149-10.105C114.523,105.1,117.004,101.278,120.543,98.961z
			 M71.92,96.638c2.641,0,4.944,0.97,6.994,2.323c3.538,2.317,6.023,6.139,6.023,10.693c0,4.169-2.103,7.727-5.164,10.115
			c-2.203,1.719-4.83,2.897-7.853,2.897c-7.189,0-13.017-5.824-13.017-13.01C58.916,102.459,64.747,96.638,71.92,96.638z"/>
	</g>
	<g id="Robot__x28_stroke_color_x29__1_" display="inline">
		
			<image overflow="visible" opacity="0.2" width="290" height="257" xlink:href="BC730069.png"  transform="matrix(0.6897 0 0 0.6897 0 11.3794)">
		</image>
		<g>
			
				<image overflow="visible" width="262" height="229" xlink:href="BC73006B.png"  transform="matrix(0.6897 0 0 0.6897 9.6548 21.0342)">
			</image>
			<g>
				<path fill="#FF23C0" d="M176.297,128.307L176.297,128.307c-0.366-0.001-0.709-0.158-0.965-0.444
					c-0.297-0.33-1.081-1.209-0.341-7.856c0.666-6.053,1.005-12.776,1.005-19.982c0-4.042-0.382-8.151-1.135-12.215
					c-0.786-4.318-0.313-4.885-0.03-5.223c0.23-0.276,0.563-0.435,0.916-0.435c0.655,0,1.756,0,3.773,8.011
					c1.32,5.286,1.99,10.69,1.99,16.062c0,5.192-0.634,10.421-1.888,15.546C178.15,127.8,177.173,128.307,176.297,128.307z
					 M177.295,89.82c0.511,3.403,0.77,6.827,0.77,10.204c0,7.28-0.342,14.08-1.017,20.209c-0.205,1.844-0.283,3.17-0.294,4.116
					c0.242-0.736,0.532-1.731,0.858-3.071c1.215-4.964,1.83-10.028,1.83-15.055c0-5.203-0.648-10.437-1.929-15.559
					C177.439,90.371,177.368,90.089,177.295,89.82z"/>
				<path fill="#FF23C0" d="M23.146,128.313L23.146,128.313c-0.875,0-1.854-0.506-3.328-6.544c-1.252-5.068-1.888-10.3-1.888-15.545
					c0-5.422,0.67-10.827,1.994-16.063c2.027-8.006,3.122-8.006,3.776-8.006c0.35,0,0.684,0.157,0.913,0.434
					c0.283,0.338,0.755,0.903-0.029,5.231c-0.756,4.087-1.138,8.197-1.138,12.22c0,7.181,0.338,13.899,1.006,19.971
					c0.74,6.649-0.045,7.528-0.342,7.859C23.856,128.155,23.513,128.313,23.146,128.313z M22.154,89.808
					c-0.073,0.275-0.147,0.562-0.223,0.861C20.649,95.738,20,100.973,20,106.224c0,5.078,0.615,10.142,1.828,15.053
					c0.328,1.346,0.619,2.346,0.864,3.083c-0.013-0.946-0.089-2.275-0.294-4.122c-0.676-6.147-1.02-12.942-1.02-20.198
					C21.377,96.666,21.638,93.233,22.154,89.808z"/>
				<path fill="#FF23C0" d="M162.046,143.611L162.046,143.611c-0.338,0-0.657-0.15-0.875-0.413c-0.35-0.42-0.399-1.001-0.188-2.147
					c0.401-2.127,0.612-4.239,0.628-6.281c0.407-10.238,0.61-17.264,0.848-25.398l0.442-15.285
					c-0.001-23.903-24.502-41.784-46.409-41.784H82.976c-21.908,0-46.41,17.771-46.41,41.555l0.437,14.913
					c0.216,7.808,0.42,15.183,0.871,26.218c0.022,1.981,0.223,4.002,0.598,6.032c0.168,0.906,0.195,1.563-0.192,2.028
					c-0.217,0.261-0.535,0.411-0.872,0.411c-2.092,0-4.246-8.532-4.856-11.146c-2.095-8.931-3.113-19.496-3.113-32.301
					c0-17.555,6.629-34.479,18.667-47.655C61.673,37.495,80.009,29.31,99.735,29.31c19.725,0,38.069,8.194,51.653,23.072
					c12.038,13.174,18.669,30.096,18.669,47.651c0,12.917-1.045,23.595-3.194,32.645
					C166.079,135.965,164.041,143.611,162.046,143.611z M82.976,50.233h33.517c22.884,0,48.478,18.766,48.478,43.883l-0.443,15.315
					c-0.236,8.14-0.439,15.171-0.848,25.386c-0.004,0.626-0.026,1.26-0.066,1.901c0.396-1.255,0.817-2.757,1.238-4.521
					c2.081-8.766,3.138-19.589,3.138-32.165c0-17.038-6.438-33.464-18.128-46.256C136.673,39.333,118.872,31.38,99.735,31.38
					s-36.93,7.945-50.102,22.374c-11.689,12.794-18.126,29.221-18.126,46.259c0,12.643,1,23.055,3.06,31.829
					c0.432,1.854,0.874,3.435,1.291,4.748c-0.029-0.52-0.046-1.036-0.052-1.549c-0.449-11.018-0.654-18.397-0.871-26.21
					l-0.438-14.943C34.496,68.889,60.091,50.233,82.976,50.233z"/>
				<path fill="#FF23C0" d="M119.735,170.144H79.734c-6.58,0-13.099-1.883-18.852-5.442c-10.562-6.526-16.93-17.744-17.033-30.009
					c-0.442-10.795-0.646-18.05-0.884-26.448c-0.122-4.29-0.251-8.872-0.425-14.37c0-9.318,4.587-18.272,12.916-25.242
					c7.861-6.579,17.891-10.352,27.517-10.352h33.501c9.624,0,19.652,3.772,27.514,10.352c8.331,6.971,12.92,15.924,12.92,25.209
					c-0.169,5.431-0.298,9.945-0.419,14.168c-0.241,8.47-0.449,15.786-0.888,26.715c-0.085,12.227-6.446,23.445-17.018,29.978
					C132.837,168.261,126.319,170.144,119.735,170.144z M82.974,60.35c-17.741,0-38.364,14.63-38.364,33.492
					c0.173,5.469,0.303,10.053,0.424,14.343c0.237,8.393,0.442,15.642,0.883,26.457c0.099,11.582,6.1,22.149,16.053,28.3
					c5.426,3.357,11.569,5.132,17.764,5.132h40.001c6.198,0,12.339-1.774,17.761-5.131c9.962-6.156,15.957-16.722,16.038-28.267
					c0.438-10.95,0.646-18.261,0.887-26.726c0.12-4.225,0.249-8.741,0.42-14.141c-0.001-18.83-20.624-33.46-38.366-33.46H82.974z
					 M71.92,123.702c-7.748,0-14.052-6.301-14.052-14.045c0.014-7.75,6.316-14.054,14.052-14.054c2.547,0,5.022,0.816,7.564,2.495
					c4.122,2.699,6.487,6.912,6.487,11.556c0,4.188-2.027,8.174-5.561,10.931C77.757,122.653,74.901,123.702,71.92,123.702z
					 M71.92,97.672c-6.596,0-11.972,5.377-11.982,11.986c0,6.603,5.375,11.976,11.982,11.976c2.508,0,4.937-0.902,7.217-2.68
					c3.073-2.397,4.765-5.7,4.765-9.3c0-3.934-2.024-7.516-5.555-9.828C76.151,98.377,74.05,97.672,71.92,97.672z M127.539,123.7
					c-2.973,0-5.832-1.048-8.499-3.113c-3.528-2.75-5.552-6.731-5.552-10.923c0-4.652,2.365-8.87,6.489-11.568
					c2.569-1.677,5.043-2.493,7.562-2.493c7.749,0,14.053,6.303,14.053,14.051C141.592,117.398,135.288,123.7,127.539,123.7z
					 M127.539,97.672c-2.105,0-4.209,0.706-6.431,2.155c-3.526,2.31-5.551,5.894-5.551,9.836c0,3.549,1.731,6.936,4.751,9.29
					c2.293,1.775,4.727,2.676,7.23,2.676c6.608,0,11.984-5.372,11.984-11.976C139.523,103.047,134.147,97.672,127.539,97.672z"/>
			</g>
		</g>
	</g>
	<g id="Robot__x28_stroke_white_x29__3_" display="inline">
		<g>
			<path fill="#FF23C0" d="M172.159,124.168L172.159,124.168c-0.367-0.001-0.709-0.157-0.965-0.443
				c-0.297-0.33-1.081-1.209-0.341-7.857c0.665-6.054,1.003-12.776,1.003-19.981c0-4.042-0.38-8.152-1.132-12.215
				c-0.788-4.318-0.313-4.885-0.031-5.223c0.23-0.276,0.563-0.435,0.915-0.435c0.656,0,1.757,0,3.774,8.011
				c1.32,5.287,1.99,10.691,1.99,16.061c0,5.193-0.635,10.422-1.889,15.547C174.013,123.662,173.035,124.168,172.159,124.168z
				 M173.157,85.681c0.511,3.404,0.77,6.828,0.77,10.206c0,7.28-0.343,14.079-1.017,20.208c-0.206,1.845-0.283,3.171-0.295,4.117
				c0.243-0.737,0.533-1.731,0.859-3.071c1.214-4.964,1.829-10.029,1.829-15.056c0-5.202-0.648-10.436-1.928-15.558
				C173.303,86.233,173.23,85.951,173.157,85.681z"/>
			<path fill="#FF23C0" d="M19.009,124.175L19.009,124.175c-0.876,0-1.854-0.506-3.328-6.544c-1.251-5.068-1.888-10.3-1.888-15.546
				c0-5.421,0.671-10.826,1.995-16.063c2.026-8.006,3.122-8.006,3.776-8.006c0.351,0,0.684,0.157,0.913,0.434
				c0.283,0.338,0.756,0.903-0.03,5.231c-0.755,4.088-1.138,8.196-1.138,12.22c0,7.181,0.339,13.898,1.007,19.971
				c0.74,6.649-0.046,7.528-0.342,7.859C19.719,124.018,19.375,124.175,19.009,124.175z M18.016,85.668
				c-0.073,0.276-0.146,0.563-0.223,0.862c-1.282,5.07-1.931,10.303-1.931,15.555c0,5.078,0.614,10.144,1.828,15.053
				c0.329,1.346,0.619,2.346,0.864,3.084c-0.012-0.946-0.089-2.275-0.294-4.122c-0.677-6.147-1.02-12.942-1.02-20.198
				C17.24,92.528,17.501,89.096,18.016,85.668z"/>
			<path fill="#FF23C0" d="M157.908,139.474L157.908,139.474c-0.338,0-0.657-0.15-0.875-0.413c-0.35-0.42-0.399-1.001-0.188-2.147
				c0.402-2.127,0.612-4.239,0.628-6.282c0.407-10.239,0.61-17.263,0.848-25.398l0.441-15.285c0-23.901-24.501-41.783-46.41-41.783
				H78.837c-21.908,0-46.41,17.771-46.41,41.554l0.438,14.913c0.216,7.808,0.42,15.183,0.871,26.217
				c0.022,1.982,0.223,4.003,0.598,6.032c0.168,0.907,0.195,1.563-0.192,2.029c-0.217,0.261-0.535,0.411-0.872,0.411
				c-2.093,0-4.246-8.532-4.856-11.147c-2.094-8.929-3.114-19.494-3.114-32.299c0-17.555,6.63-34.48,18.668-47.655
				c13.568-14.862,31.904-23.047,51.629-23.047c19.726,0,38.069,8.194,51.654,23.072c12.038,13.172,18.669,30.097,18.669,47.652
				c0,12.916-1.045,23.594-3.194,32.644C161.94,131.827,159.903,139.474,157.908,139.474z M78.837,46.096h33.515
				c22.886,0,48.479,18.766,48.479,43.882l-0.443,15.315c-0.236,8.141-0.439,15.172-0.848,25.386
				c-0.005,0.627-0.027,1.261-0.066,1.902c0.396-1.255,0.817-2.757,1.238-4.521c2.082-8.766,3.136-19.589,3.136-32.164
				c0-17.039-6.437-33.466-18.126-46.257c-13.188-14.444-30.988-22.398-50.126-22.398c-19.137,0-36.93,7.946-50.101,22.374
				C33.806,62.408,27.369,78.837,27.369,95.875c0,12.643,1.001,23.055,3.06,31.829c0.432,1.854,0.874,3.435,1.29,4.748
				c-0.028-0.52-0.046-1.036-0.052-1.549c-0.449-11.018-0.654-18.398-0.871-26.211l-0.438-14.942
				C30.358,64.751,55.953,46.096,78.837,46.096z"/>
			<path fill="#FF23C0" d="M115.598,166.005H75.597c-6.58,0-13.099-1.882-18.853-5.442c-10.562-6.525-16.929-17.744-17.032-30.008
				c-0.442-10.795-0.647-18.05-0.884-26.449c-0.122-4.29-0.251-8.87-0.425-14.37c0-9.317,4.587-18.271,12.917-25.243
				c7.861-6.578,17.891-10.352,27.517-10.352h33.501c9.624,0,19.652,3.773,27.514,10.352c8.331,6.972,12.92,15.925,12.92,25.21
				c-0.169,5.431-0.298,9.946-0.419,14.168c-0.241,8.47-0.45,15.786-0.888,26.715c-0.085,12.227-6.446,23.445-17.018,29.978
				C128.699,164.123,122.18,166.005,115.598,166.005z M78.836,56.211c-17.741,0-38.364,14.63-38.364,33.493
				c0.174,5.469,0.303,10.052,0.424,14.343c0.237,8.393,0.441,15.642,0.884,26.456c0.098,11.583,6.099,22.149,16.053,28.3
				c5.425,3.358,11.568,5.133,17.764,5.133h40.001c6.198,0,12.339-1.774,17.76-5.132c9.963-6.155,15.958-16.721,16.038-28.266
				c0.438-10.95,0.646-18.261,0.888-26.726c0.12-4.224,0.249-8.741,0.42-14.141c-0.001-18.831-20.624-33.46-38.366-33.46H78.836z
				 M67.783,119.564c-7.748,0-14.051-6.302-14.051-14.046c0.013-7.749,6.315-14.053,14.051-14.053c2.547,0,5.022,0.816,7.563,2.495
				c4.122,2.699,6.487,6.912,6.487,11.555c0,4.189-2.028,8.175-5.562,10.932C73.62,118.516,70.763,119.564,67.783,119.564z
				 M67.783,93.535c-6.596,0-11.972,5.377-11.983,11.986c0,6.602,5.376,11.975,11.983,11.975c2.508,0,4.937-0.901,7.217-2.679
				c3.073-2.398,4.765-5.701,4.765-9.301c0-3.933-2.025-7.514-5.556-9.827C72.013,94.239,69.912,93.535,67.783,93.535z
				 M123.401,119.563c-2.973,0-5.832-1.048-8.499-3.113c-3.529-2.751-5.552-6.733-5.552-10.924c0-4.651,2.364-8.869,6.489-11.567
				c2.567-1.678,5.043-2.493,7.562-2.493c7.749,0,14.053,6.302,14.053,14.05C137.454,113.261,131.15,119.563,123.401,119.563z
				 M123.401,93.535c-2.105,0-4.209,0.706-6.431,2.155c-3.527,2.31-5.551,5.894-5.551,9.835c0,3.55,1.731,6.937,4.751,9.291
				c2.293,1.775,4.727,2.676,7.23,2.676c6.608,0,11.984-5.372,11.984-11.977C135.386,98.909,130.01,93.535,123.401,93.535z"/>
		</g>
		<g>
			<path fill="#FFFFFF" d="M176.297,128.307L176.297,128.307c-0.366-0.001-0.709-0.158-0.965-0.444
				c-0.297-0.33-1.081-1.209-0.341-7.856c0.666-6.053,1.005-12.776,1.005-19.982c0-4.042-0.382-8.151-1.135-12.215
				c-0.786-4.318-0.313-4.885-0.03-5.223c0.23-0.276,0.563-0.435,0.916-0.435c0.655,0,1.756,0,3.773,8.011
				c1.32,5.286,1.99,10.69,1.99,16.062c0,5.192-0.634,10.421-1.888,15.546C178.15,127.8,177.173,128.307,176.297,128.307z
				 M177.295,89.82c0.511,3.403,0.77,6.827,0.77,10.204c0,7.28-0.342,14.08-1.017,20.209c-0.205,1.844-0.283,3.17-0.294,4.116
				c0.242-0.736,0.532-1.731,0.858-3.071c1.215-4.964,1.83-10.028,1.83-15.055c0-5.203-0.648-10.437-1.929-15.559
				C177.439,90.371,177.368,90.089,177.295,89.82z"/>
			<path fill="#FFFFFF" d="M23.146,128.313L23.146,128.313c-0.875,0-1.854-0.506-3.328-6.544c-1.252-5.068-1.888-10.3-1.888-15.545
				c0-5.422,0.67-10.827,1.994-16.063c2.027-8.006,3.122-8.006,3.776-8.006c0.35,0,0.684,0.157,0.913,0.434
				c0.283,0.338,0.755,0.903-0.029,5.231c-0.756,4.087-1.138,8.197-1.138,12.22c0,7.181,0.338,13.899,1.006,19.971
				c0.74,6.649-0.045,7.528-0.342,7.859C23.856,128.155,23.513,128.313,23.146,128.313z M22.154,89.808
				c-0.073,0.275-0.147,0.562-0.223,0.861C20.649,95.738,20,100.973,20,106.224c0,5.078,0.615,10.142,1.828,15.053
				c0.328,1.346,0.619,2.346,0.864,3.083c-0.013-0.946-0.089-2.275-0.294-4.122c-0.676-6.147-1.02-12.942-1.02-20.198
				C21.377,96.666,21.638,93.233,22.154,89.808z"/>
			<path fill="#FFFFFF" d="M162.046,143.611L162.046,143.611c-0.338,0-0.657-0.15-0.875-0.413c-0.35-0.42-0.399-1.001-0.188-2.147
				c0.401-2.127,0.612-4.239,0.628-6.281c0.407-10.238,0.61-17.264,0.848-25.398l0.442-15.285
				c-0.001-23.903-24.502-41.784-46.409-41.784H82.976c-21.908,0-46.41,17.771-46.41,41.555l0.437,14.913
				c0.216,7.808,0.42,15.183,0.871,26.218c0.022,1.981,0.223,4.002,0.598,6.032c0.168,0.906,0.195,1.563-0.192,2.028
				c-0.217,0.261-0.535,0.411-0.872,0.411c-2.092,0-4.246-8.532-4.856-11.146c-2.095-8.931-3.113-19.496-3.113-32.301
				c0-17.555,6.629-34.479,18.667-47.655C61.673,37.495,80.009,29.31,99.735,29.31c19.725,0,38.069,8.194,51.653,23.072
				c12.038,13.174,18.669,30.096,18.669,47.651c0,12.917-1.045,23.595-3.194,32.645
				C166.079,135.965,164.041,143.611,162.046,143.611z M82.976,50.233h33.517c22.884,0,48.478,18.766,48.478,43.883l-0.443,15.315
				c-0.236,8.14-0.439,15.171-0.848,25.386c-0.004,0.626-0.026,1.26-0.066,1.901c0.396-1.255,0.817-2.757,1.238-4.521
				c2.081-8.766,3.138-19.589,3.138-32.165c0-17.038-6.438-33.464-18.128-46.256C136.673,39.333,118.872,31.38,99.735,31.38
				s-36.93,7.945-50.102,22.374c-11.689,12.794-18.126,29.221-18.126,46.259c0,12.643,1,23.055,3.06,31.829
				c0.432,1.854,0.874,3.435,1.291,4.748c-0.029-0.52-0.046-1.036-0.052-1.549c-0.449-11.018-0.654-18.397-0.871-26.21
				l-0.438-14.943C34.496,68.889,60.091,50.233,82.976,50.233z"/>
			<path fill="#FFFFFF" d="M119.735,170.144H79.734c-6.58,0-13.099-1.883-18.852-5.442c-10.562-6.526-16.93-17.744-17.033-30.009
				c-0.442-10.795-0.646-18.05-0.884-26.448c-0.122-4.29-0.251-8.872-0.425-14.37c0-9.318,4.587-18.272,12.916-25.242
				c7.861-6.579,17.891-10.352,27.517-10.352h33.501c9.624,0,19.652,3.772,27.514,10.352c8.331,6.971,12.92,15.924,12.92,25.209
				c-0.169,5.431-0.298,9.945-0.419,14.168c-0.241,8.47-0.449,15.786-0.888,26.715c-0.085,12.227-6.446,23.445-17.018,29.978
				C132.837,168.261,126.319,170.144,119.735,170.144z M82.974,60.35c-17.741,0-38.364,14.63-38.364,33.492
				c0.173,5.469,0.303,10.053,0.424,14.343c0.237,8.393,0.442,15.642,0.883,26.457c0.099,11.582,6.1,22.149,16.053,28.3
				c5.426,3.357,11.569,5.132,17.764,5.132h40.001c6.198,0,12.339-1.774,17.761-5.131c9.962-6.156,15.957-16.722,16.038-28.267
				c0.438-10.95,0.646-18.261,0.887-26.726c0.12-4.225,0.249-8.741,0.42-14.141c-0.001-18.83-20.624-33.46-38.366-33.46H82.974z
				 M71.92,123.702c-7.748,0-14.052-6.301-14.052-14.045c0.014-7.75,6.316-14.054,14.052-14.054c2.547,0,5.022,0.816,7.564,2.495
				c4.122,2.699,6.487,6.912,6.487,11.556c0,4.188-2.027,8.174-5.561,10.931C77.757,122.653,74.901,123.702,71.92,123.702z
				 M71.92,97.672c-6.596,0-11.972,5.377-11.982,11.986c0,6.603,5.375,11.976,11.982,11.976c2.508,0,4.937-0.902,7.217-2.68
				c3.073-2.397,4.765-5.7,4.765-9.3c0-3.934-2.024-7.516-5.555-9.828C76.151,98.377,74.05,97.672,71.92,97.672z M127.539,123.7
				c-2.973,0-5.832-1.048-8.499-3.113c-3.528-2.75-5.552-6.731-5.552-10.923c0-4.652,2.365-8.87,6.489-11.568
				c2.569-1.677,5.043-2.493,7.562-2.493c7.749,0,14.053,6.303,14.053,14.051C141.592,117.398,135.288,123.7,127.539,123.7z
				 M127.539,97.672c-2.105,0-4.209,0.706-6.431,2.155c-3.526,2.31-5.551,5.894-5.551,9.836c0,3.549,1.731,6.936,4.751,9.29
				c2.293,1.775,4.727,2.676,7.23,2.676c6.608,0,11.984-5.372,11.984-11.976C139.523,103.047,134.147,97.672,127.539,97.672z"/>
		</g>
	</g>
</g>
<g id="Robot__x28_green_x29__1_" display="none">
	<g id="Robot__x28_fill_x29_" display="inline" opacity="0.2">
		<path fill="#05DE71" d="M178.617,121.523c1.192-4.871,1.859-9.981,1.859-15.3c0-5.497-0.705-10.792-1.959-15.809
			c-2.154-8.552-3.871-9.557-2.639-2.794c0.747,4.031,1.15,8.166,1.15,12.403c0,7.375-0.344,14.048-1.01,20.096
			C175.033,128.968,176.597,129.803,178.617,121.523z"/>
		<path fill="#05DE71" d="M20.928,90.415c-1.271,5.031-1.962,10.313-1.962,15.809c0,5.318,0.654,10.429,1.858,15.3
			c2.026,8.295,3.587,7.444,2.602-1.401c-0.664-6.034-1.013-12.709-1.013-20.083c0-4.243,0.409-8.373,1.154-12.404
			C24.797,80.857,23.093,81.862,20.928,90.415z"/>
		<path fill="#05DE71" d="M99.735,30.345c-20.193,0-38.206,8.844-50.865,22.711c-11.327,12.396-18.397,28.797-18.397,46.957
			c0,12.945,1.073,23.486,3.086,32.065c2.023,8.672,4.522,12.505,3.896,9.13c-0.371-2.007-0.591-4.068-0.615-6.178
			c-0.437-10.724-0.642-17.964-0.871-26.229l-0.438-14.943c0-24.376,25.05-42.589,47.445-42.589h4.267h24.983h4.267
			c22.397,0,47.443,18.213,47.443,42.849l-0.425,14.655c-0.24,8.281-0.448,15.529-0.865,26.005c-0.016,2.216-0.25,4.372-0.645,6.464
			c-0.657,3.542,1.792-0.143,3.855-8.803c2.049-8.631,3.165-19.27,3.165-32.404c0-18.162-7.072-34.56-18.398-46.954
			C137.939,39.188,119.929,30.345,99.735,30.345z"/>
		<path fill="#05DE71" d="M61.427,163.821c5.342,3.306,11.584,5.287,18.308,5.287c10.673,0,17.773,0,26.074,0
			c4.152,0,8.598,0,13.927,0c6.726,0,12.968-1.981,18.306-5.287c9.807-6.059,16.441-16.765,16.527-29.139
			c0.655-16.362,0.796-24.6,1.306-40.841c0-19.075-20.331-34.527-39.399-34.527c-6.402,0-11.244,0-16.048,0
			c-0.461,0-0.939,0-1.401,0c-4.803,0-9.66,0-16.052,0c-19.077,0-39.398,15.452-39.398,34.527
			c0.513,16.241,0.64,24.479,1.309,40.841C44.988,147.072,51.626,157.766,61.427,163.821z M120.543,98.961
			c2.053-1.339,4.355-2.323,6.996-2.323c7.189,0,13.019,5.821,13.019,13.016c0,7.188-5.829,13.012-13.019,13.012
			c-3.01,0-5.666-1.192-7.866-2.896c-3.05-2.379-5.149-5.935-5.149-10.105C114.523,105.1,117.004,101.278,120.543,98.961z
			 M71.92,96.638c2.641,0,4.944,0.97,6.994,2.323c3.538,2.317,6.023,6.139,6.023,10.693c0,4.169-2.103,7.727-5.164,10.115
			c-2.203,1.719-4.83,2.897-7.853,2.897c-7.189,0-13.017-5.824-13.017-13.01C58.916,102.459,64.747,96.638,71.92,96.638z"/>
	</g>
	<g id="Robot__x28_stroke_color_x29_" display="inline">
		
			<image overflow="visible" opacity="0.2" width="290" height="257" xlink:href="BC73006E.png"  transform="matrix(0.6897 0 0 0.6897 0 11.3794)">
		</image>
		<g>
			
				<image overflow="visible" width="262" height="229" xlink:href="BC73006F.png"  transform="matrix(0.6897 0 0 0.6897 9.6548 21.0342)">
			</image>
			<g>
				<path fill="#06DE71" d="M176.297,128.307L176.297,128.307c-0.366-0.001-0.709-0.158-0.965-0.444
					c-0.297-0.33-1.081-1.209-0.341-7.856c0.666-6.053,1.005-12.776,1.005-19.982c0-4.042-0.382-8.151-1.135-12.215
					c-0.786-4.318-0.313-4.885-0.03-5.223c0.23-0.276,0.563-0.435,0.916-0.435c0.655,0,1.756,0,3.773,8.011
					c1.32,5.286,1.99,10.69,1.99,16.062c0,5.192-0.634,10.421-1.888,15.546C178.15,127.8,177.173,128.307,176.297,128.307z
					 M177.295,89.82c0.511,3.403,0.77,6.827,0.77,10.204c0,7.28-0.342,14.08-1.017,20.209c-0.205,1.844-0.283,3.17-0.294,4.116
					c0.242-0.736,0.532-1.731,0.858-3.071c1.215-4.964,1.83-10.028,1.83-15.055c0-5.203-0.648-10.437-1.929-15.559
					C177.439,90.371,177.368,90.089,177.295,89.82z"/>
				<path fill="#06DE71" d="M23.146,128.313L23.146,128.313c-0.875,0-1.854-0.506-3.328-6.544c-1.252-5.068-1.888-10.3-1.888-15.545
					c0-5.422,0.67-10.827,1.994-16.063c2.027-8.006,3.122-8.006,3.776-8.006c0.35,0,0.684,0.157,0.913,0.434
					c0.283,0.338,0.755,0.903-0.029,5.231c-0.756,4.087-1.138,8.197-1.138,12.22c0,7.181,0.338,13.899,1.006,19.971
					c0.74,6.649-0.045,7.528-0.342,7.859C23.856,128.155,23.513,128.313,23.146,128.313z M22.154,89.808
					c-0.073,0.275-0.147,0.562-0.223,0.861C20.649,95.738,20,100.973,20,106.224c0,5.078,0.615,10.142,1.828,15.053
					c0.328,1.346,0.619,2.346,0.864,3.083c-0.013-0.946-0.089-2.275-0.294-4.122c-0.676-6.147-1.02-12.942-1.02-20.198
					C21.377,96.666,21.638,93.233,22.154,89.808z"/>
				<path fill="#06DE71" d="M162.046,143.611L162.046,143.611c-0.338,0-0.657-0.15-0.875-0.413c-0.35-0.42-0.399-1.001-0.188-2.147
					c0.401-2.127,0.612-4.239,0.628-6.281c0.407-10.238,0.61-17.264,0.848-25.398l0.442-15.285
					c-0.001-23.903-24.502-41.784-46.409-41.784H82.976c-21.908,0-46.41,17.771-46.41,41.555l0.437,14.913
					c0.216,7.808,0.42,15.183,0.871,26.218c0.022,1.981,0.223,4.002,0.598,6.032c0.168,0.906,0.195,1.563-0.192,2.028
					c-0.217,0.261-0.535,0.411-0.872,0.411c-2.092,0-4.246-8.532-4.856-11.146c-2.095-8.931-3.113-19.496-3.113-32.301
					c0-17.555,6.629-34.479,18.667-47.655C61.673,37.495,80.009,29.31,99.735,29.31c19.725,0,38.069,8.194,51.653,23.072
					c12.038,13.174,18.669,30.096,18.669,47.651c0,12.917-1.045,23.595-3.194,32.645
					C166.079,135.965,164.041,143.611,162.046,143.611z M82.976,50.233h33.517c22.884,0,48.478,18.766,48.478,43.883l-0.443,15.315
					c-0.236,8.14-0.439,15.171-0.848,25.386c-0.004,0.626-0.026,1.26-0.066,1.901c0.396-1.255,0.817-2.757,1.238-4.521
					c2.081-8.766,3.138-19.589,3.138-32.165c0-17.038-6.438-33.464-18.128-46.256C136.673,39.333,118.872,31.38,99.735,31.38
					s-36.93,7.945-50.102,22.374c-11.689,12.794-18.126,29.221-18.126,46.259c0,12.643,1,23.055,3.06,31.829
					c0.432,1.854,0.874,3.435,1.291,4.748c-0.029-0.52-0.046-1.036-0.052-1.549c-0.449-11.018-0.654-18.397-0.871-26.21
					l-0.438-14.943C34.496,68.889,60.091,50.233,82.976,50.233z"/>
				<path fill="#06DE71" d="M119.735,170.144H79.734c-6.58,0-13.099-1.883-18.852-5.442c-10.562-6.526-16.93-17.744-17.033-30.009
					c-0.442-10.795-0.646-18.05-0.884-26.448c-0.122-4.29-0.251-8.872-0.425-14.37c0-9.318,4.587-18.272,12.916-25.242
					c7.861-6.579,17.891-10.352,27.517-10.352h33.501c9.624,0,19.652,3.772,27.514,10.352c8.331,6.971,12.92,15.924,12.92,25.209
					c-0.169,5.431-0.298,9.945-0.419,14.168c-0.241,8.47-0.449,15.786-0.888,26.715c-0.085,12.227-6.446,23.445-17.018,29.978
					C132.837,168.261,126.319,170.144,119.735,170.144z M82.974,60.35c-17.741,0-38.364,14.63-38.364,33.492
					c0.173,5.469,0.303,10.053,0.424,14.343c0.237,8.393,0.442,15.642,0.883,26.457c0.099,11.582,6.1,22.149,16.053,28.3
					c5.426,3.357,11.569,5.132,17.764,5.132h40.001c6.198,0,12.339-1.774,17.761-5.131c9.962-6.156,15.957-16.722,16.038-28.267
					c0.438-10.95,0.646-18.261,0.887-26.726c0.12-4.225,0.249-8.741,0.42-14.141c-0.001-18.83-20.624-33.46-38.366-33.46H82.974z
					 M71.92,123.702c-7.748,0-14.052-6.301-14.052-14.045c0.014-7.75,6.316-14.054,14.052-14.054c2.547,0,5.022,0.816,7.564,2.495
					c4.122,2.699,6.487,6.912,6.487,11.556c0,4.188-2.027,8.174-5.561,10.931C77.757,122.653,74.901,123.702,71.92,123.702z
					 M71.92,97.672c-6.596,0-11.972,5.377-11.982,11.986c0,6.603,5.375,11.976,11.982,11.976c2.508,0,4.937-0.902,7.217-2.68
					c3.073-2.397,4.765-5.7,4.765-9.3c0-3.934-2.024-7.516-5.555-9.828C76.151,98.377,74.05,97.672,71.92,97.672z M127.539,123.7
					c-2.973,0-5.832-1.048-8.499-3.113c-3.528-2.75-5.552-6.731-5.552-10.923c0-4.652,2.365-8.87,6.489-11.568
					c2.569-1.677,5.043-2.493,7.562-2.493c7.749,0,14.053,6.303,14.053,14.051C141.592,117.398,135.288,123.7,127.539,123.7z
					 M127.539,97.672c-2.105,0-4.209,0.706-6.431,2.155c-3.526,2.31-5.551,5.894-5.551,9.836c0,3.549,1.731,6.936,4.751,9.29
					c2.293,1.775,4.727,2.676,7.23,2.676c6.608,0,11.984-5.372,11.984-11.976C139.523,103.047,134.147,97.672,127.539,97.672z"/>
			</g>
		</g>
	</g>
	<g id="Robot__x28_stroke_white_x29__1_" display="inline">
		<g>
			<path fill="#00FF79" d="M172.159,124.168L172.159,124.168c-0.367-0.001-0.709-0.157-0.965-0.443
				c-0.297-0.33-1.081-1.209-0.341-7.857c0.665-6.054,1.003-12.776,1.003-19.981c0-4.042-0.38-8.152-1.132-12.215
				c-0.788-4.318-0.313-4.885-0.031-5.223c0.23-0.276,0.563-0.435,0.915-0.435c0.656,0,1.757,0,3.774,8.011
				c1.32,5.287,1.99,10.691,1.99,16.061c0,5.193-0.635,10.422-1.889,15.547C174.013,123.662,173.035,124.168,172.159,124.168z
				 M173.157,85.681c0.511,3.404,0.77,6.828,0.77,10.206c0,7.28-0.343,14.079-1.017,20.208c-0.206,1.845-0.283,3.171-0.295,4.117
				c0.243-0.737,0.533-1.731,0.859-3.071c1.214-4.964,1.829-10.029,1.829-15.056c0-5.202-0.648-10.436-1.928-15.558
				C173.303,86.233,173.23,85.951,173.157,85.681z"/>
			<path fill="#00FF79" d="M19.009,124.175L19.009,124.175c-0.876,0-1.854-0.506-3.328-6.544c-1.251-5.068-1.888-10.3-1.888-15.546
				c0-5.421,0.671-10.826,1.995-16.063c2.026-8.006,3.122-8.006,3.776-8.006c0.351,0,0.684,0.157,0.913,0.434
				c0.283,0.338,0.756,0.903-0.03,5.231c-0.755,4.088-1.138,8.196-1.138,12.22c0,7.181,0.339,13.898,1.007,19.971
				c0.74,6.649-0.046,7.528-0.342,7.859C19.719,124.018,19.375,124.175,19.009,124.175z M18.016,85.668
				c-0.073,0.276-0.146,0.563-0.223,0.862c-1.282,5.07-1.931,10.303-1.931,15.555c0,5.078,0.614,10.144,1.828,15.053
				c0.329,1.346,0.619,2.346,0.864,3.084c-0.012-0.946-0.089-2.275-0.294-4.122c-0.677-6.147-1.02-12.942-1.02-20.198
				C17.24,92.528,17.501,89.096,18.016,85.668z"/>
			<path fill="#00FF79" d="M157.908,139.474L157.908,139.474c-0.338,0-0.657-0.15-0.875-0.413c-0.35-0.42-0.399-1.001-0.188-2.147
				c0.402-2.127,0.612-4.239,0.628-6.282c0.407-10.239,0.61-17.263,0.848-25.398l0.441-15.285c0-23.901-24.501-41.783-46.41-41.783
				H78.837c-21.908,0-46.41,17.771-46.41,41.554l0.438,14.913c0.216,7.808,0.42,15.183,0.871,26.217
				c0.022,1.982,0.223,4.003,0.598,6.032c0.168,0.907,0.195,1.563-0.192,2.029c-0.217,0.261-0.535,0.411-0.872,0.411
				c-2.093,0-4.246-8.532-4.856-11.147c-2.094-8.929-3.114-19.494-3.114-32.299c0-17.555,6.63-34.48,18.668-47.655
				c13.568-14.862,31.904-23.047,51.629-23.047c19.726,0,38.069,8.194,51.654,23.072c12.038,13.172,18.669,30.097,18.669,47.652
				c0,12.916-1.045,23.594-3.194,32.644C161.94,131.827,159.903,139.474,157.908,139.474z M78.837,46.096h33.515
				c22.886,0,48.479,18.766,48.479,43.882l-0.443,15.315c-0.236,8.141-0.439,15.172-0.848,25.386
				c-0.005,0.627-0.027,1.261-0.066,1.902c0.396-1.255,0.817-2.757,1.238-4.521c2.082-8.766,3.136-19.589,3.136-32.164
				c0-17.039-6.437-33.466-18.126-46.257c-13.188-14.444-30.988-22.398-50.126-22.398c-19.137,0-36.93,7.946-50.101,22.374
				C33.806,62.408,27.369,78.837,27.369,95.875c0,12.643,1.001,23.055,3.06,31.829c0.432,1.854,0.874,3.435,1.29,4.748
				c-0.028-0.52-0.046-1.036-0.052-1.549c-0.449-11.018-0.654-18.398-0.871-26.211l-0.438-14.942
				C30.358,64.751,55.953,46.096,78.837,46.096z"/>
			<path fill="#00FF79" d="M115.598,166.005H75.597c-6.58,0-13.099-1.882-18.853-5.442c-10.562-6.525-16.929-17.744-17.032-30.008
				c-0.442-10.795-0.647-18.05-0.884-26.449c-0.122-4.29-0.251-8.87-0.425-14.37c0-9.317,4.587-18.271,12.917-25.243
				c7.861-6.578,17.891-10.352,27.517-10.352h33.501c9.624,0,19.652,3.773,27.514,10.352c8.331,6.972,12.92,15.925,12.92,25.21
				c-0.169,5.431-0.298,9.946-0.419,14.168c-0.241,8.47-0.45,15.786-0.888,26.715c-0.085,12.227-6.446,23.445-17.018,29.978
				C128.699,164.123,122.18,166.005,115.598,166.005z M78.836,56.211c-17.741,0-38.364,14.63-38.364,33.493
				c0.174,5.469,0.303,10.052,0.424,14.343c0.237,8.393,0.441,15.642,0.884,26.456c0.098,11.583,6.099,22.149,16.053,28.3
				c5.425,3.358,11.568,5.133,17.764,5.133h40.001c6.198,0,12.339-1.774,17.76-5.132c9.963-6.155,15.958-16.721,16.038-28.266
				c0.438-10.95,0.646-18.261,0.888-26.726c0.12-4.224,0.249-8.741,0.42-14.141c-0.001-18.831-20.624-33.46-38.366-33.46H78.836z
				 M67.783,119.564c-7.748,0-14.051-6.302-14.051-14.046c0.013-7.749,6.315-14.053,14.051-14.053c2.547,0,5.022,0.816,7.563,2.495
				c4.122,2.699,6.487,6.912,6.487,11.555c0,4.189-2.028,8.175-5.562,10.932C73.62,118.516,70.763,119.564,67.783,119.564z
				 M67.783,93.535c-6.596,0-11.972,5.377-11.983,11.986c0,6.602,5.376,11.975,11.983,11.975c2.508,0,4.937-0.901,7.217-2.679
				c3.073-2.398,4.765-5.701,4.765-9.301c0-3.933-2.025-7.514-5.556-9.827C72.013,94.239,69.912,93.535,67.783,93.535z
				 M123.401,119.563c-2.973,0-5.832-1.048-8.499-3.113c-3.529-2.751-5.552-6.733-5.552-10.924c0-4.651,2.364-8.869,6.489-11.567
				c2.567-1.678,5.043-2.493,7.562-2.493c7.749,0,14.053,6.302,14.053,14.05C137.454,113.261,131.15,119.563,123.401,119.563z
				 M123.401,93.535c-2.105,0-4.209,0.706-6.431,2.155c-3.527,2.31-5.551,5.894-5.551,9.835c0,3.55,1.731,6.937,4.751,9.291
				c2.293,1.775,4.727,2.676,7.23,2.676c6.608,0,11.984-5.372,11.984-11.977C135.386,98.909,130.01,93.535,123.401,93.535z"/>
		</g>
		<g>
			<path fill="#FFFFFF" d="M176.297,128.307L176.297,128.307c-0.366-0.001-0.709-0.158-0.965-0.444
				c-0.297-0.33-1.081-1.209-0.341-7.856c0.666-6.053,1.005-12.776,1.005-19.982c0-4.042-0.382-8.151-1.135-12.215
				c-0.786-4.318-0.313-4.885-0.03-5.223c0.23-0.276,0.563-0.435,0.916-0.435c0.655,0,1.756,0,3.773,8.011
				c1.32,5.286,1.99,10.69,1.99,16.062c0,5.192-0.634,10.421-1.888,15.546C178.15,127.8,177.173,128.307,176.297,128.307z
				 M177.295,89.82c0.511,3.403,0.77,6.827,0.77,10.204c0,7.28-0.342,14.08-1.017,20.209c-0.205,1.844-0.283,3.17-0.294,4.116
				c0.242-0.736,0.532-1.731,0.858-3.071c1.215-4.964,1.83-10.028,1.83-15.055c0-5.203-0.648-10.437-1.929-15.559
				C177.439,90.371,177.368,90.089,177.295,89.82z"/>
			<path fill="#FFFFFF" d="M23.146,128.313L23.146,128.313c-0.875,0-1.854-0.506-3.328-6.544c-1.252-5.068-1.888-10.3-1.888-15.545
				c0-5.422,0.67-10.827,1.994-16.063c2.027-8.006,3.122-8.006,3.776-8.006c0.35,0,0.684,0.157,0.913,0.434
				c0.283,0.338,0.755,0.903-0.029,5.231c-0.756,4.087-1.138,8.197-1.138,12.22c0,7.181,0.338,13.899,1.006,19.971
				c0.74,6.649-0.045,7.528-0.342,7.859C23.856,128.155,23.513,128.313,23.146,128.313z M22.154,89.808
				c-0.073,0.275-0.147,0.562-0.223,0.861C20.649,95.738,20,100.973,20,106.224c0,5.078,0.615,10.142,1.828,15.053
				c0.328,1.346,0.619,2.346,0.864,3.083c-0.013-0.946-0.089-2.275-0.294-4.122c-0.676-6.147-1.02-12.942-1.02-20.198
				C21.377,96.666,21.638,93.233,22.154,89.808z"/>
			<path fill="#FFFFFF" d="M162.046,143.611L162.046,143.611c-0.338,0-0.657-0.15-0.875-0.413c-0.35-0.42-0.399-1.001-0.188-2.147
				c0.401-2.127,0.612-4.239,0.628-6.281c0.407-10.238,0.61-17.264,0.848-25.398l0.442-15.285
				c-0.001-23.903-24.502-41.784-46.409-41.784H82.976c-21.908,0-46.41,17.771-46.41,41.555l0.437,14.913
				c0.216,7.808,0.42,15.183,0.871,26.218c0.022,1.981,0.223,4.002,0.598,6.032c0.168,0.906,0.195,1.563-0.192,2.028
				c-0.217,0.261-0.535,0.411-0.872,0.411c-2.092,0-4.246-8.532-4.856-11.146c-2.095-8.931-3.113-19.496-3.113-32.301
				c0-17.555,6.629-34.479,18.667-47.655C61.673,37.495,80.009,29.31,99.735,29.31c19.725,0,38.069,8.194,51.653,23.072
				c12.038,13.174,18.669,30.096,18.669,47.651c0,12.917-1.045,23.595-3.194,32.645
				C166.079,135.965,164.041,143.611,162.046,143.611z M82.976,50.233h33.517c22.884,0,48.478,18.766,48.478,43.883l-0.443,15.315
				c-0.236,8.14-0.439,15.171-0.848,25.386c-0.004,0.626-0.026,1.26-0.066,1.901c0.396-1.255,0.817-2.757,1.238-4.521
				c2.081-8.766,3.138-19.589,3.138-32.165c0-17.038-6.438-33.464-18.128-46.256C136.673,39.333,118.872,31.38,99.735,31.38
				s-36.93,7.945-50.102,22.374c-11.689,12.794-18.126,29.221-18.126,46.259c0,12.643,1,23.055,3.06,31.829
				c0.432,1.854,0.874,3.435,1.291,4.748c-0.029-0.52-0.046-1.036-0.052-1.549c-0.449-11.018-0.654-18.397-0.871-26.21
				l-0.438-14.943C34.496,68.889,60.091,50.233,82.976,50.233z"/>
			<path fill="#FFFFFF" d="M119.735,170.144H79.734c-6.58,0-13.099-1.883-18.852-5.442c-10.562-6.526-16.93-17.744-17.033-30.009
				c-0.442-10.795-0.646-18.05-0.884-26.448c-0.122-4.29-0.251-8.872-0.425-14.37c0-9.318,4.587-18.272,12.916-25.242
				c7.861-6.579,17.891-10.352,27.517-10.352h33.501c9.624,0,19.652,3.772,27.514,10.352c8.331,6.971,12.92,15.924,12.92,25.209
				c-0.169,5.431-0.298,9.945-0.419,14.168c-0.241,8.47-0.449,15.786-0.888,26.715c-0.085,12.227-6.446,23.445-17.018,29.978
				C132.837,168.261,126.319,170.144,119.735,170.144z M82.974,60.35c-17.741,0-38.364,14.63-38.364,33.492
				c0.173,5.469,0.303,10.053,0.424,14.343c0.237,8.393,0.442,15.642,0.883,26.457c0.099,11.582,6.1,22.149,16.053,28.3
				c5.426,3.357,11.569,5.132,17.764,5.132h40.001c6.198,0,12.339-1.774,17.761-5.131c9.962-6.156,15.957-16.722,16.038-28.267
				c0.438-10.95,0.646-18.261,0.887-26.726c0.12-4.225,0.249-8.741,0.42-14.141c-0.001-18.83-20.624-33.46-38.366-33.46H82.974z
				 M71.92,123.702c-7.748,0-14.052-6.301-14.052-14.045c0.014-7.75,6.316-14.054,14.052-14.054c2.547,0,5.022,0.816,7.564,2.495
				c4.122,2.699,6.487,6.912,6.487,11.556c0,4.188-2.027,8.174-5.561,10.931C77.757,122.653,74.901,123.702,71.92,123.702z
				 M71.92,97.672c-6.596,0-11.972,5.377-11.982,11.986c0,6.603,5.375,11.976,11.982,11.976c2.508,0,4.937-0.902,7.217-2.68
				c3.073-2.397,4.765-5.7,4.765-9.3c0-3.934-2.024-7.516-5.555-9.828C76.151,98.377,74.05,97.672,71.92,97.672z M127.539,123.7
				c-2.973,0-5.832-1.048-8.499-3.113c-3.528-2.75-5.552-6.731-5.552-10.923c0-4.652,2.365-8.87,6.489-11.568
				c2.569-1.677,5.043-2.493,7.562-2.493c7.749,0,14.053,6.303,14.053,14.051C141.592,117.398,135.288,123.7,127.539,123.7z
				 M127.539,97.672c-2.105,0-4.209,0.706-6.431,2.155c-3.526,2.31-5.551,5.894-5.551,9.836c0,3.549,1.731,6.936,4.751,9.29
				c2.293,1.775,4.727,2.676,7.23,2.676c6.608,0,11.984-5.372,11.984-11.976C139.523,103.047,134.147,97.672,127.539,97.672z"/>
		</g>
	</g>
</g>
<g id="Robot__x28_blue_x29_">
	<g id="Robot__x28_fill_x29__2_" opacity="0.2">
		<path fill="#00E5FF" d="M178.617,121.523c1.192-4.871,1.859-9.981,1.859-15.3c0-5.497-0.705-10.792-1.959-15.809
			c-2.154-8.552-3.871-9.557-2.639-2.794c0.747,4.031,1.15,8.166,1.15,12.403c0,7.375-0.344,14.048-1.01,20.096
			C175.033,128.968,176.597,129.803,178.617,121.523z"/>
		<path fill="#00E5FF" d="M20.928,90.415c-1.271,5.031-1.962,10.313-1.962,15.809c0,5.318,0.654,10.429,1.858,15.3
			c2.026,8.295,3.587,7.444,2.602-1.401c-0.664-6.034-1.013-12.709-1.013-20.083c0-4.243,0.409-8.373,1.154-12.404
			C24.797,80.857,23.093,81.862,20.928,90.415z"/>
		<path fill="#00E5FF" d="M99.735,30.345c-20.193,0-38.206,8.844-50.865,22.711c-11.327,12.396-18.397,28.797-18.397,46.957
			c0,12.945,1.073,23.486,3.086,32.065c2.023,8.672,4.522,12.505,3.896,9.13c-0.371-2.007-0.591-4.068-0.615-6.178
			c-0.437-10.724-0.642-17.964-0.871-26.229l-0.438-14.943c0-24.376,25.05-42.589,47.445-42.589h4.267h24.983h4.267
			c22.397,0,47.443,18.213,47.443,42.849l-0.425,14.655c-0.24,8.281-0.448,15.529-0.865,26.005c-0.016,2.216-0.25,4.372-0.645,6.464
			c-0.657,3.542,1.792-0.143,3.855-8.803c2.049-8.631,3.165-19.27,3.165-32.404c0-18.162-7.072-34.56-18.398-46.954
			C137.939,39.188,119.929,30.345,99.735,30.345z"/>
		<path fill="#00E5FF" d="M61.427,163.821c5.342,3.306,11.584,5.287,18.308,5.287c10.673,0,17.773,0,26.074,0
			c4.152,0,8.598,0,13.927,0c6.726,0,12.968-1.981,18.306-5.287c9.807-6.059,16.441-16.765,16.527-29.139
			c0.655-16.362,0.796-24.6,1.306-40.841c0-19.075-20.331-34.527-39.399-34.527c-6.402,0-11.244,0-16.048,0
			c-0.461,0-0.939,0-1.401,0c-4.803,0-9.66,0-16.052,0c-19.077,0-39.398,15.452-39.398,34.527
			c0.513,16.241,0.64,24.479,1.309,40.841C44.988,147.072,51.626,157.766,61.427,163.821z M120.543,98.961
			c2.053-1.339,4.355-2.323,6.996-2.323c7.189,0,13.019,5.821,13.019,13.016c0,7.188-5.829,13.012-13.019,13.012
			c-3.01,0-5.666-1.192-7.866-2.896c-3.05-2.379-5.149-5.935-5.149-10.105C114.523,105.1,117.004,101.278,120.543,98.961z
			 M71.92,96.638c2.641,0,4.944,0.97,6.994,2.323c3.538,2.317,6.023,6.139,6.023,10.693c0,4.169-2.103,7.727-5.164,10.115
			c-2.203,1.719-4.83,2.897-7.853,2.897c-7.189,0-13.017-5.824-13.017-13.01C58.916,102.459,64.747,96.638,71.92,96.638z"/>
	</g>
	<g id="Robot__x28_stroke_color_x29__3_">
		
			<image overflow="visible" opacity="0.2" width="290" height="257" xlink:href="BC73006A.png"  transform="matrix(0.6897 0 0 0.6897 0 11.3794)">
		</image>
		<g>
			
				<image overflow="visible" width="262" height="229" xlink:href="BC730065.png"  transform="matrix(0.6897 0 0 0.6897 9.6548 21.0342)">
			</image>
			<g>
				<path fill="#06DE71" d="M176.297,128.307L176.297,128.307c-0.366-0.001-0.709-0.158-0.965-0.444
					c-0.297-0.33-1.081-1.209-0.341-7.856c0.666-6.053,1.005-12.776,1.005-19.982c0-4.042-0.382-8.151-1.135-12.215
					c-0.786-4.318-0.313-4.885-0.03-5.223c0.23-0.276,0.563-0.435,0.916-0.435c0.655,0,1.756,0,3.773,8.011
					c1.32,5.286,1.99,10.69,1.99,16.062c0,5.192-0.634,10.421-1.888,15.546C178.15,127.8,177.173,128.307,176.297,128.307z
					 M177.295,89.82c0.511,3.403,0.77,6.827,0.77,10.204c0,7.28-0.342,14.08-1.017,20.209c-0.205,1.844-0.283,3.17-0.294,4.116
					c0.242-0.736,0.532-1.731,0.858-3.071c1.215-4.964,1.83-10.028,1.83-15.055c0-5.203-0.648-10.437-1.929-15.559
					C177.439,90.371,177.368,90.089,177.295,89.82z"/>
				<path fill="#06DE71" d="M23.146,128.313L23.146,128.313c-0.875,0-1.854-0.506-3.328-6.544c-1.252-5.068-1.888-10.3-1.888-15.545
					c0-5.422,0.67-10.827,1.994-16.063c2.027-8.006,3.122-8.006,3.776-8.006c0.35,0,0.684,0.157,0.913,0.434
					c0.283,0.338,0.755,0.903-0.029,5.231c-0.756,4.087-1.138,8.197-1.138,12.22c0,7.181,0.338,13.899,1.006,19.971
					c0.74,6.649-0.045,7.528-0.342,7.859C23.856,128.155,23.513,128.313,23.146,128.313z M22.154,89.808
					c-0.073,0.275-0.147,0.562-0.223,0.861C20.649,95.738,20,100.973,20,106.224c0,5.078,0.615,10.142,1.828,15.053
					c0.328,1.346,0.619,2.346,0.864,3.083c-0.013-0.946-0.089-2.275-0.294-4.122c-0.676-6.147-1.02-12.942-1.02-20.198
					C21.377,96.666,21.638,93.233,22.154,89.808z"/>
				<path fill="#06DE71" d="M162.046,143.611L162.046,143.611c-0.338,0-0.657-0.15-0.875-0.413c-0.35-0.42-0.399-1.001-0.188-2.147
					c0.401-2.127,0.612-4.239,0.628-6.281c0.407-10.238,0.61-17.264,0.848-25.398l0.442-15.285
					c-0.001-23.903-24.502-41.784-46.409-41.784H82.976c-21.908,0-46.41,17.771-46.41,41.555l0.437,14.913
					c0.216,7.808,0.42,15.183,0.871,26.218c0.022,1.981,0.223,4.002,0.598,6.032c0.168,0.906,0.195,1.563-0.192,2.028
					c-0.217,0.261-0.535,0.411-0.872,0.411c-2.092,0-4.246-8.532-4.856-11.146c-2.095-8.931-3.113-19.496-3.113-32.301
					c0-17.555,6.629-34.479,18.667-47.655C61.673,37.495,80.009,29.31,99.735,29.31c19.725,0,38.069,8.194,51.653,23.072
					c12.038,13.174,18.669,30.096,18.669,47.651c0,12.917-1.045,23.595-3.194,32.645
					C166.079,135.965,164.041,143.611,162.046,143.611z M82.976,50.233h33.517c22.884,0,48.478,18.766,48.478,43.883l-0.443,15.315
					c-0.236,8.14-0.439,15.171-0.848,25.386c-0.004,0.626-0.026,1.26-0.066,1.901c0.396-1.255,0.817-2.757,1.238-4.521
					c2.081-8.766,3.138-19.589,3.138-32.165c0-17.038-6.438-33.464-18.128-46.256C136.673,39.333,118.872,31.38,99.735,31.38
					s-36.93,7.945-50.102,22.374c-11.689,12.794-18.126,29.221-18.126,46.259c0,12.643,1,23.055,3.06,31.829
					c0.432,1.854,0.874,3.435,1.291,4.748c-0.029-0.52-0.046-1.036-0.052-1.549c-0.449-11.018-0.654-18.397-0.871-26.21
					l-0.438-14.943C34.496,68.889,60.091,50.233,82.976,50.233z"/>
				<path fill="#06DE71" d="M119.735,170.144H79.734c-6.58,0-13.099-1.883-18.852-5.442c-10.562-6.526-16.93-17.744-17.033-30.009
					c-0.442-10.795-0.646-18.05-0.884-26.448c-0.122-4.29-0.251-8.872-0.425-14.37c0-9.318,4.587-18.272,12.916-25.242
					c7.861-6.579,17.891-10.352,27.517-10.352h33.501c9.624,0,19.652,3.772,27.514,10.352c8.331,6.971,12.92,15.924,12.92,25.209
					c-0.169,5.431-0.298,9.945-0.419,14.168c-0.241,8.47-0.449,15.786-0.888,26.715c-0.085,12.227-6.446,23.445-17.018,29.978
					C132.837,168.261,126.319,170.144,119.735,170.144z M82.974,60.35c-17.741,0-38.364,14.63-38.364,33.492
					c0.173,5.469,0.303,10.053,0.424,14.343c0.237,8.393,0.442,15.642,0.883,26.457c0.099,11.582,6.1,22.149,16.053,28.3
					c5.426,3.357,11.569,5.132,17.764,5.132h40.001c6.198,0,12.339-1.774,17.761-5.131c9.962-6.156,15.957-16.722,16.038-28.267
					c0.438-10.95,0.646-18.261,0.887-26.726c0.12-4.225,0.249-8.741,0.42-14.141c-0.001-18.83-20.624-33.46-38.366-33.46H82.974z
					 M71.92,123.702c-7.748,0-14.052-6.301-14.052-14.045c0.014-7.75,6.316-14.054,14.052-14.054c2.547,0,5.022,0.816,7.564,2.495
					c4.122,2.699,6.487,6.912,6.487,11.556c0,4.188-2.027,8.174-5.561,10.931C77.757,122.653,74.901,123.702,71.92,123.702z
					 M71.92,97.672c-6.596,0-11.972,5.377-11.982,11.986c0,6.603,5.375,11.976,11.982,11.976c2.508,0,4.937-0.902,7.217-2.68
					c3.073-2.397,4.765-5.7,4.765-9.3c0-3.934-2.024-7.516-5.555-9.828C76.151,98.377,74.05,97.672,71.92,97.672z M127.539,123.7
					c-2.973,0-5.832-1.048-8.499-3.113c-3.528-2.75-5.552-6.731-5.552-10.923c0-4.652,2.365-8.87,6.489-11.568
					c2.569-1.677,5.043-2.493,7.562-2.493c7.749,0,14.053,6.303,14.053,14.051C141.592,117.398,135.288,123.7,127.539,123.7z
					 M127.539,97.672c-2.105,0-4.209,0.706-6.431,2.155c-3.526,2.31-5.551,5.894-5.551,9.836c0,3.549,1.731,6.936,4.751,9.29
					c2.293,1.775,4.727,2.676,7.23,2.676c6.608,0,11.984-5.372,11.984-11.976C139.523,103.047,134.147,97.672,127.539,97.672z"/>
			</g>
		</g>
	</g>
	<g id="Robot__x28_stroke_white_x29__5_">
		<g>
			<path fill="#00E5FF" d="M172.159,124.168L172.159,124.168c-0.367-0.001-0.709-0.157-0.965-0.443
				c-0.297-0.33-1.081-1.209-0.341-7.857c0.665-6.054,1.003-12.776,1.003-19.981c0-4.042-0.38-8.152-1.132-12.215
				c-0.788-4.318-0.313-4.885-0.031-5.223c0.23-0.276,0.563-0.435,0.915-0.435c0.656,0,1.757,0,3.774,8.011
				c1.32,5.287,1.99,10.691,1.99,16.061c0,5.193-0.635,10.422-1.889,15.547C174.013,123.662,173.035,124.168,172.159,124.168z
				 M173.157,85.681c0.511,3.404,0.77,6.828,0.77,10.206c0,7.28-0.343,14.079-1.017,20.208c-0.206,1.845-0.283,3.171-0.295,4.117
				c0.243-0.737,0.533-1.731,0.859-3.071c1.214-4.964,1.829-10.029,1.829-15.056c0-5.202-0.648-10.436-1.928-15.558
				C173.303,86.233,173.23,85.951,173.157,85.681z"/>
			<path fill="#00E5FF" d="M19.009,124.175L19.009,124.175c-0.876,0-1.854-0.506-3.328-6.544c-1.251-5.068-1.888-10.3-1.888-15.546
				c0-5.421,0.671-10.826,1.995-16.063c2.026-8.006,3.122-8.006,3.776-8.006c0.351,0,0.684,0.157,0.913,0.434
				c0.283,0.338,0.756,0.903-0.03,5.231c-0.755,4.088-1.138,8.196-1.138,12.22c0,7.181,0.339,13.898,1.007,19.971
				c0.74,6.649-0.046,7.528-0.342,7.859C19.719,124.018,19.375,124.175,19.009,124.175z M18.016,85.668
				c-0.073,0.276-0.146,0.563-0.223,0.862c-1.282,5.07-1.931,10.303-1.931,15.555c0,5.078,0.614,10.144,1.828,15.053
				c0.329,1.346,0.619,2.346,0.864,3.084c-0.012-0.946-0.089-2.275-0.294-4.122c-0.677-6.147-1.02-12.942-1.02-20.198
				C17.24,92.528,17.501,89.096,18.016,85.668z"/>
			<path fill="#00E5FF" d="M157.908,139.474L157.908,139.474c-0.338,0-0.657-0.15-0.875-0.413c-0.35-0.42-0.399-1.001-0.188-2.147
				c0.402-2.127,0.612-4.239,0.628-6.282c0.407-10.239,0.61-17.263,0.848-25.398l0.441-15.285c0-23.901-24.501-41.783-46.41-41.783
				H78.837c-21.908,0-46.41,17.771-46.41,41.554l0.438,14.913c0.216,7.808,0.42,15.183,0.871,26.217
				c0.022,1.982,0.223,4.003,0.598,6.032c0.168,0.907,0.195,1.563-0.192,2.029c-0.217,0.261-0.535,0.411-0.872,0.411
				c-2.093,0-4.246-8.532-4.856-11.147c-2.094-8.929-3.114-19.494-3.114-32.299c0-17.555,6.63-34.48,18.668-47.655
				c13.568-14.862,31.904-23.047,51.629-23.047c19.726,0,38.069,8.194,51.654,23.072c12.038,13.172,18.669,30.097,18.669,47.652
				c0,12.916-1.045,23.594-3.194,32.644C161.94,131.827,159.903,139.474,157.908,139.474z M78.837,46.096h33.515
				c22.886,0,48.479,18.766,48.479,43.882l-0.443,15.315c-0.236,8.141-0.439,15.172-0.848,25.386
				c-0.005,0.627-0.027,1.261-0.066,1.902c0.396-1.255,0.817-2.757,1.238-4.521c2.082-8.766,3.136-19.589,3.136-32.164
				c0-17.039-6.437-33.466-18.126-46.257c-13.188-14.444-30.988-22.398-50.126-22.398c-19.137,0-36.93,7.946-50.101,22.374
				C33.806,62.408,27.369,78.837,27.369,95.875c0,12.643,1.001,23.055,3.06,31.829c0.432,1.854,0.874,3.435,1.29,4.748
				c-0.028-0.52-0.046-1.036-0.052-1.549c-0.449-11.018-0.654-18.398-0.871-26.211l-0.438-14.942
				C30.358,64.751,55.953,46.096,78.837,46.096z"/>
			<path fill="#00E5FF" d="M115.598,166.005H75.597c-6.58,0-13.099-1.882-18.853-5.442c-10.562-6.525-16.929-17.744-17.032-30.008
				c-0.442-10.795-0.647-18.05-0.884-26.449c-0.122-4.29-0.251-8.87-0.425-14.37c0-9.317,4.587-18.271,12.917-25.243
				c7.861-6.578,17.891-10.352,27.517-10.352h33.501c9.624,0,19.652,3.773,27.514,10.352c8.331,6.972,12.92,15.925,12.92,25.21
				c-0.169,5.431-0.298,9.946-0.419,14.168c-0.241,8.47-0.45,15.786-0.888,26.715c-0.085,12.227-6.446,23.445-17.018,29.978
				C128.699,164.123,122.18,166.005,115.598,166.005z M78.836,56.211c-17.741,0-38.364,14.63-38.364,33.493
				c0.174,5.469,0.303,10.052,0.424,14.343c0.237,8.393,0.441,15.642,0.884,26.456c0.098,11.583,6.099,22.149,16.053,28.3
				c5.425,3.358,11.568,5.133,17.764,5.133h40.001c6.198,0,12.339-1.774,17.76-5.132c9.963-6.155,15.958-16.721,16.038-28.266
				c0.438-10.95,0.646-18.261,0.888-26.726c0.12-4.224,0.249-8.741,0.42-14.141c-0.001-18.831-20.624-33.46-38.366-33.46H78.836z
				 M67.783,119.564c-7.748,0-14.051-6.302-14.051-14.046c0.013-7.749,6.315-14.053,14.051-14.053c2.547,0,5.022,0.816,7.563,2.495
				c4.122,2.699,6.487,6.912,6.487,11.555c0,4.189-2.028,8.175-5.562,10.932C73.62,118.516,70.763,119.564,67.783,119.564z
				 M67.783,93.535c-6.596,0-11.972,5.377-11.983,11.986c0,6.602,5.376,11.975,11.983,11.975c2.508,0,4.937-0.901,7.217-2.679
				c3.073-2.398,4.765-5.701,4.765-9.301c0-3.933-2.025-7.514-5.556-9.827C72.013,94.239,69.912,93.535,67.783,93.535z
				 M123.401,119.563c-2.973,0-5.832-1.048-8.499-3.113c-3.529-2.751-5.552-6.733-5.552-10.924c0-4.651,2.364-8.869,6.489-11.567
				c2.567-1.678,5.043-2.493,7.562-2.493c7.749,0,14.053,6.302,14.053,14.05C137.454,113.261,131.15,119.563,123.401,119.563z
				 M123.401,93.535c-2.105,0-4.209,0.706-6.431,2.155c-3.527,2.31-5.551,5.894-5.551,9.835c0,3.55,1.731,6.937,4.751,9.291
				c2.293,1.775,4.727,2.676,7.23,2.676c6.608,0,11.984-5.372,11.984-11.977C135.386,98.909,130.01,93.535,123.401,93.535z"/>
		</g>
		<g>
			<path fill="#FFFFFF" d="M176.297,128.307L176.297,128.307c-0.366-0.001-0.709-0.158-0.965-0.444
				c-0.297-0.33-1.081-1.209-0.341-7.856c0.666-6.053,1.005-12.776,1.005-19.982c0-4.042-0.382-8.151-1.135-12.215
				c-0.786-4.318-0.313-4.885-0.03-5.223c0.23-0.276,0.563-0.435,0.916-0.435c0.655,0,1.756,0,3.773,8.011
				c1.32,5.286,1.99,10.69,1.99,16.062c0,5.192-0.634,10.421-1.888,15.546C178.15,127.8,177.173,128.307,176.297,128.307z
				 M177.295,89.82c0.511,3.403,0.77,6.827,0.77,10.204c0,7.28-0.342,14.08-1.017,20.209c-0.205,1.844-0.283,3.17-0.294,4.116
				c0.242-0.736,0.532-1.731,0.858-3.071c1.215-4.964,1.83-10.028,1.83-15.055c0-5.203-0.648-10.437-1.929-15.559
				C177.439,90.371,177.368,90.089,177.295,89.82z"/>
			<path fill="#FFFFFF" d="M23.146,128.313L23.146,128.313c-0.875,0-1.854-0.506-3.328-6.544c-1.252-5.068-1.888-10.3-1.888-15.545
				c0-5.422,0.67-10.827,1.994-16.063c2.027-8.006,3.122-8.006,3.776-8.006c0.35,0,0.684,0.157,0.913,0.434
				c0.283,0.338,0.755,0.903-0.029,5.231c-0.756,4.087-1.138,8.197-1.138,12.22c0,7.181,0.338,13.899,1.006,19.971
				c0.74,6.649-0.045,7.528-0.342,7.859C23.856,128.155,23.513,128.313,23.146,128.313z M22.154,89.808
				c-0.073,0.275-0.147,0.562-0.223,0.861C20.649,95.738,20,100.973,20,106.224c0,5.078,0.615,10.142,1.828,15.053
				c0.328,1.346,0.619,2.346,0.864,3.083c-0.013-0.946-0.089-2.275-0.294-4.122c-0.676-6.147-1.02-12.942-1.02-20.198
				C21.377,96.666,21.638,93.233,22.154,89.808z"/>
			<path fill="#FFFFFF" d="M162.046,143.611L162.046,143.611c-0.338,0-0.657-0.15-0.875-0.413c-0.35-0.42-0.399-1.001-0.188-2.147
				c0.401-2.127,0.612-4.239,0.628-6.281c0.407-10.238,0.61-17.264,0.848-25.398l0.442-15.285
				c-0.001-23.903-24.502-41.784-46.409-41.784H82.976c-21.908,0-46.41,17.771-46.41,41.555l0.437,14.913
				c0.216,7.808,0.42,15.183,0.871,26.218c0.022,1.981,0.223,4.002,0.598,6.032c0.168,0.906,0.195,1.563-0.192,2.028
				c-0.217,0.261-0.535,0.411-0.872,0.411c-2.092,0-4.246-8.532-4.856-11.146c-2.095-8.931-3.113-19.496-3.113-32.301
				c0-17.555,6.629-34.479,18.667-47.655C61.673,37.495,80.009,29.31,99.735,29.31c19.725,0,38.069,8.194,51.653,23.072
				c12.038,13.174,18.669,30.096,18.669,47.651c0,12.917-1.045,23.595-3.194,32.645
				C166.079,135.965,164.041,143.611,162.046,143.611z M82.976,50.233h33.517c22.884,0,48.478,18.766,48.478,43.883l-0.443,15.315
				c-0.236,8.14-0.439,15.171-0.848,25.386c-0.004,0.626-0.026,1.26-0.066,1.901c0.396-1.255,0.817-2.757,1.238-4.521
				c2.081-8.766,3.138-19.589,3.138-32.165c0-17.038-6.438-33.464-18.128-46.256C136.673,39.333,118.872,31.38,99.735,31.38
				s-36.93,7.945-50.102,22.374c-11.689,12.794-18.126,29.221-18.126,46.259c0,12.643,1,23.055,3.06,31.829
				c0.432,1.854,0.874,3.435,1.291,4.748c-0.029-0.52-0.046-1.036-0.052-1.549c-0.449-11.018-0.654-18.397-0.871-26.21
				l-0.438-14.943C34.496,68.889,60.091,50.233,82.976,50.233z"/>
			<path fill="#FFFFFF" d="M119.735,170.144H79.734c-6.58,0-13.099-1.883-18.852-5.442c-10.562-6.526-16.93-17.744-17.033-30.009
				c-0.442-10.795-0.646-18.05-0.884-26.448c-0.122-4.29-0.251-8.872-0.425-14.37c0-9.318,4.587-18.272,12.916-25.242
				c7.861-6.579,17.891-10.352,27.517-10.352h33.501c9.624,0,19.652,3.772,27.514,10.352c8.331,6.971,12.92,15.924,12.92,25.209
				c-0.169,5.431-0.298,9.945-0.419,14.168c-0.241,8.47-0.449,15.786-0.888,26.715c-0.085,12.227-6.446,23.445-17.018,29.978
				C132.837,168.261,126.319,170.144,119.735,170.144z M82.974,60.35c-17.741,0-38.364,14.63-38.364,33.492
				c0.173,5.469,0.303,10.053,0.424,14.343c0.237,8.393,0.442,15.642,0.883,26.457c0.099,11.582,6.1,22.149,16.053,28.3
				c5.426,3.357,11.569,5.132,17.764,5.132h40.001c6.198,0,12.339-1.774,17.761-5.131c9.962-6.156,15.957-16.722,16.038-28.267
				c0.438-10.95,0.646-18.261,0.887-26.726c0.12-4.225,0.249-8.741,0.42-14.141c-0.001-18.83-20.624-33.46-38.366-33.46H82.974z
				 M71.92,123.702c-7.748,0-14.052-6.301-14.052-14.045c0.014-7.75,6.316-14.054,14.052-14.054c2.547,0,5.022,0.816,7.564,2.495
				c4.122,2.699,6.487,6.912,6.487,11.556c0,4.188-2.027,8.174-5.561,10.931C77.757,122.653,74.901,123.702,71.92,123.702z
				 M71.92,97.672c-6.596,0-11.972,5.377-11.982,11.986c0,6.603,5.375,11.976,11.982,11.976c2.508,0,4.937-0.902,7.217-2.68
				c3.073-2.397,4.765-5.7,4.765-9.3c0-3.934-2.024-7.516-5.555-9.828C76.151,98.377,74.05,97.672,71.92,97.672z M127.539,123.7
				c-2.973,0-5.832-1.048-8.499-3.113c-3.528-2.75-5.552-6.731-5.552-10.923c0-4.652,2.365-8.87,6.489-11.568
				c2.569-1.677,5.043-2.493,7.562-2.493c7.749,0,14.053,6.303,14.053,14.051C141.592,117.398,135.288,123.7,127.539,123.7z
				 M127.539,97.672c-2.105,0-4.209,0.706-6.431,2.155c-3.526,2.31-5.551,5.894-5.551,9.836c0,3.549,1.731,6.936,4.751,9.29
				c2.293,1.775,4.727,2.676,7.23,2.676c6.608,0,11.984-5.372,11.984-11.976C139.523,103.047,134.147,97.672,127.539,97.672z"/>
		</g>
	</g>
</g>
</svg>
