<?xml version="1.0" encoding="utf-8"?>
<!-- Generator: Adobe Illustrator 16.0.0, SVG Export Plug-In . SVG Version: 6.00 Build 0)  -->
<!DOCTYPE svg PUBLIC "-//W3C//DTD SVG 1.1//EN" "http://www.w3.org/Graphics/SVG/1.1/DTD/svg11.dtd">
<svg version="1.1" id="Layer_1" xmlns="http://www.w3.org/2000/svg" xmlns:xlink="http://www.w3.org/1999/xlink" x="0px" y="0px"
	 width="1366px" height="768px" viewBox="0 0 1366 768" enable-background="new 0 0 1366 768" xml:space="preserve">
<g>
	<path fill="#FFFFFF" d="M826.856,275.246l1.217-0.987l-0.781-2.543l-2.432-2.663l-2.111,4.098
		c-0.871-1.882-1.086-3.761-0.871-5.859c-3.324-2.436-5.541-5.422-8.408-8.184l0.564-1.443l3.41,0.228l-1.65-1.326l1.219-1.663
		l6.742-0.444l-1.219-0.774c0.779-1.768,1.219-3.54,1.432-5.411c-2.541-0.998-5.195-1.663-7.85-1.879
		c-4.52,1.76-8.277,5.75-13.254,6.292c-0.568,2-1.545,3.76-3,5.206l1.783,1.542l1.65,1.665c-1.432,5.302,5.65,13.822,10.281,16.134
		l-2.869,0.337c0,1.882-0.566,3.653-1.545,5.088l-1.672,5.412c4.867,3.76,13.063,6.192,19.014,4.205
		c-0.213-2.877,0-5.855,0.463-8.735l-3.113-2.099l2.113-1l-0.441-1.989l-2.992-1.434l0.779-3.423
		C824.642,273.92,825.86,274.475,826.856,275.246z"/>
	<polygon fill="#FFFFFF" points="420.059,283.213 422.939,281.997 419.648,282.059 	"/>
	<polygon fill="#FFFFFF" points="915.534,136.702 917.399,135.715 914.379,134.788 	"/>
	<path fill="#FFFFFF" d="M0,0v768h1366V0H0z M606.16,191.549l1.541-0.446v-2.098l2.097,0.99l4.536-0.664l-3.982,4.869l8.186,0.663
		l-3.979,6.086l1.326,0.88l-4.096,0.998l5.42,0.663l2.435,1.988l0.99,3.424l2.987,2.108c1.326,2.543,2.217,5.302,2.544,8.182
		l6.086,1.653l-4.762,4.76l3.543,0.435l-1.326,2.323c-5.315,0.882-10.953,1.772-16.364,1.328l-0.664,1.771l-2.542-0.337
		l-3.436,1.878l-1.76-0.879c1.99-0.881,3.423-2.326,4.53-4.206c1.773-0.99,3.651-1.217,5.526-0.99l1.105-2.216
		c-3.098,0.892-6.415,0.337-9.281-0.987l3.642-2.11l0.552-1.988l-1.879-0.772l6.196-2.206l0.107-4.651l-2.096-0.324l0.991-2.99
		c-2.426,0.444-4.862,0.554-7.296,0.335l1.543-3.542l-0.662-1.662l0.783-1.771l-3.327,2c0-1.552,0.121-3.096,0.121-4.651
		l-1.888,0.783c0.887-2.436,1.997-4.544,3.54-6.641L606.16,191.549z M590.781,219.629l0.448-1.328l2.095-1.214l-4.642-1.109
		l0.111-0.989l1.662-1.556l-1.772-0.106l5.859-1.543l1.435-2.217h-2.315c0.99-0.663,1.771-1.544,2.315-2.542
		c2.542,0.443,5.086,0.443,7.631-0.111l1.767,4.425l-2.87,1.988l1.654,4.314l-2.313,4.205c-3.989,1.218-7.74,2.869-11.729,3.87
		l-1.541-1.665l0.771-1.542l-1.771-0.109l2.435-0.783c0.664-0.989,1.553-1.65,2.543-2.203L590.781,219.629z M361.018,187.016
		l-1.988,1.435l-4.207-0.554l-3.759-3.097l-2.542,0.337l-1.434,2.206l-5.75,2.88l-0.444-3.097l-5.642,0.991
		c0.666-1.438,1.664-2.424,2.989-3.088c0.555-3.65,1.662-7.194,2.653-10.724l1.445,3.097c5.191,0.88,11.051,3.866,14.148,8.291
		C358.031,186.018,359.585,186.571,361.018,187.016z M506.311,514.518c-1.555,2-3.434,3.547-5.638,4.65
		c-0.773,2.438-1.882,4.766-3.315,6.848l-2.543-0.327c-1.878,5.976-0.554,12.499-1.664,18.694
		c-1.216,6.301-10.061,20.775-10.061,20.775c-4.532,0.669-8.846-0.76-12.389,2.868c-4.967,0.675-8.402,4.757-12.595,7.412
		c-0.338,3.764-0.228,7.52-0.12,11.278c-4.532,4.086-5.638,9.848-10.061,14.045l3.095-6.091l-2.207-0.217l-0.771,3.114
		c-4.65,4.079-5.976,10.711-10.4,15.356c-5.194,1.22-10.725,0.33-15.257-2.318l0.447,2.539l2.542,1.549
		c0.446,2.649,1.435,5.19,2.868,7.514c-1.326,1.898-2.542,3.872-3.642,5.871c-5.205,2.104-11.17,3.431-16.703,2.323
		c-0.216,2.877-0.216,5.413-0.216,8.396c-3.434,1.215-6.966,1.428-10.279,0.105c0.216,2.219,0.664,4.544,1.096,6.761l3.988-0.222
		l-0.661,2.306l-4.207,2.215c-0.998,2.326-1.662,4.65-1.772,7.197l-6.409,2.762l0.999,6.301l4.531,3.216
		c-6.303,9.393-9.506,11.26-9.954,23.432l-3.651-0.439c-1.098,1.33,14.932,8.739,12.833,9.959l-22.113-3.002
		c0,0-7.749-12.386-8.846-13.604l-1.002-15.262c0.22-1.429,0.881-2.536,1.989-3.412l-5.527-2.105l4.093-3.544
		c0,0,6.75-9.061,7.077-16.148c-0.774-0.977-4.425-3.301-4.425-3.301l-0.664-4.763l2.099-3.304c-0.771-3.432-0.664-6.867-1.435-10.3
		c0,0,5.642-11.035,7.63-15.688l-0.442-1.878l0.997-2.429c-0.774-3.999-1.666-7.983,0.77-11.633
		c-1.88-6.3,3.207-14.579,2.879-21.449c-0.337-7.172,0.555-14.799,0.555-22.211c-7.859-8.063-17.03-11.064-22.778-21.017
		c-4.975-8.499-8.845-21.669-18.028-26.425l1.663-0.442c-0.445-1.995-0.89-4.076-1.217-6.191l3.654-2.867l1.538-4.653l-1.987,1.784
		l-2.095-1.434c0.432-1.679,0.327-3.219-0.23-4.758l2.326-1.33c0.773-1.885,1.327-3.867,1.987-5.76
		c1.773-0.646,4.979-5.629,4.979-5.629l5.085-5.193c-0.881-4.976-1.435-9.843-2.208-14.715l2.101-0.781l-1.327-2.547
		c0,0,4.641-2.757,7.077-4.407l0.443-2.545l3.642-1.002l1.335-2.322h3.423l1.325-4.083l-0.553-1.219
		c-1.879-1.107-8.399,0.892-8.399,0.892l1.215,3.083l-3.096,0.784l-1.11-2.432c-2.204-0.894-4.53-1.004-6.855-0.463l-10.28-7.951
		c-0.11-3.978-2.544-6.737-5.75-9.061c-0.218-1.329-0.773-2.548-1.882-3.437c-11.169-1.657-16.026-4.302-25.21-10.717l-7.52,1.979
		c-11.715-3.412-22.667-8.497-32.288-15.913c2.327-9.95-7.183-12.05-9.946-19.905c-1.658-0.987-17.142-19.019-18.578-24.427
		l-6.628-2.665l-0.447,2.665c1.772,4.083,3.977,8.952,7.737,11.386c1.107,7.292,9.617,13.488,12.498,20.115h-2.436
		c-2.544-1.987-4.976-4.194-7.29-6.411c0.217-1.544,0-2.976-0.664-4.314c-3.097-2.978-6.641-5.087-10.291-7.401l2.107-4.313
		c-6.53-3.428-9.399-13.607-12.387-20.018c-2.989-1.65-6.304-2.869-9.617-3.423c-1.556-4.977-6.086-8.521-7.074-13.822l-0.121-0.11
		l-4.532-4.759c-1.217-5.858-2.207-11.944-3.205-17.91l1.878-2.76c-0.107-4.097,0.109-8.074,1.327-12.054l-3.098-7.749l6.748-0.324
		l0.339,3.205c1.989-3.651,0.664-7.845-1.772-10.941c-2.217-0.12-10.833-5.979-13.269-6.75l-4.421-3.977l0.879-2.989
		c-1.106-2.433-6.304-5.639-6.304-5.639c-1.767-1.325-10.387-11.835-10.387-11.835l-0.336-3.868
		c-4.197-2.978-4.751-8.183-9.282-10.726l-1.663,1.108c-1.772-1.435-3.759-2.327-5.858-2.869l1.988,2.205l-3.54,0.109
		c-2.545-2.542-22.777-8.844-26.31-8.739l-14.931-5.3c-0.109,1.878,0,3.65,0.337,5.532c-4.869-0.232-8.739,3.096-12.942,5.085
		c0.553-3.651,5.639-12.051,5.639-12.051c-5.965,2.868-8.955,7.736-14.377,11.16l2.436,2.989
		c-3.206,3.867-11.715,9.506-11.715,9.506c-3.653,0.663-7.075,2.651-9.401,5.533l-4.641-0.89c8.955-4.195,7.739-7.075,12.487-14.475
		c-2.205-0.122-4.424-0.122-6.629,0l0.216,1.541c-3.759-1.663-7.736-2.65-11.833-2.881l-0.108-4.303
		c-2.651-0.999-5.303-1.108-8.066-0.444l-2.432-2.542l0.989-2.218l4.206,0.664c-2.326-1.652-5.085-2.652-7.853-3.314l-1.993-2.869
		c0,0,4.976-6.195,7.519-8.521l3.543,1.112c1.653-1.773,8.4-5.305,8.4-5.305l-1.434-3.435l1.771-1.434l-3.652-0.554l-4.532,2.325
		c-3.865-1.327-7.746-1-11.834-1.107l-1.215-3.099l3.426-0.661l-9.175-2.652c5.423-2.11,10.617-3.87,16.256-5.195l0.771,2.425
		c4.423,0.888,7.958-1.545,12.378-1.1l0.552-1.447c-2.095-0.325-4.083-0.77-6.182-1.097l-6.303-2.769
		c-3.327-3.533-8.184-5.304-12.496-7.631l1.879-2.205c2.759-0.663,5.411-1.324,8.181-1.879c2.316-4.206,14.705-9.182,14.705-9.182
		l-0.336-2.87c16.479-2.989,76.636,9.726,91.663,14.147l-1.326-2.205l18.139-7.411l3.977,0.329c-3.869,2.877-9.169,5.864-13.707,7.3
		c0.667,1.433,6.414-1.11,6.414-1.11c5.195-1.434,12.716-9.834,12.716-9.834c3.531,3.206,7.293,6.074,11.279,8.738v-3.097
		l3.977,2.869l1.772-0.447l2.543-2.542c9.619,0.891,25.537,3.988,33.274,9.737l-2.869,0.326l-2.433,2.327
		c7.182,1.216,12.158,1,19.343-0.111c2.66,1.435,5.64,2.323,8.304,3.653l-1.219,1.435l3.206,3.313l1.65-2.325l-2.204-5.521
		c2.87-0.778,5.529-1.879,8.075-3.204c8.953,2.976,17.246,4.856,26.535,2.542l1.762,1.434l2.77-1.107l-4.759-1.772l1.989-1.327
		c2.215,0.447,4.314,1.446,6.194,2.656v4.094l3.435,1.662l-0.554-5.87c2.869-0.987,5.192-2.759,7.18-5.084l-3.977-0.663l2.314-1.99
		l3.544,1.328v-3.533c-4.087-0.227-7.737-2.109-11.836-3.097c-0.215-1.882-0.664-3.65-1.217-5.421l0.891-3.207l3.206,0.109
		l-1.217-3.099l9.838,2.219l0.335,3.422c2.098,1.216,3.543,2.987,4.423,5.312l-3.1,2.543c2.652,0.544,5.309,1.099,7.849,1.654
		c-0.663,2.542-0.329,5.084,0.674,7.518l7.736-4.083l1.435,2.869l-2.209,1.987l2.209,4.536l4.314,1.103
		c0.77-1.763,1.989-3.206,3.313-4.531l0.664-3.206l3.543-1.435c-1.217-1.879-2.218-3.871-2.879-6.085
		c4.314-0.327,8.736-0.108,11.942,2.989l1.988,0.106l-0.664,4.425l-2.205-1.543l3.639,7.736l-2.422,5.305l-5.533,1.107L343,167.663
		c1.764,0.999,3.316,2.433,4.641,3.978c-3.65-1.218-7.738-1.544-11.498-0.881l3.207,1.772l-6.086,4.869
		c-2.759-1.555-5.749-2.879-8.845-3.881l-3.096,0.554c4.421,2.218,8.962,3.653,13.604,5.086l-3.208,5.086l-7.192,0.228l0.335,3.642
		c-4.313-0.546-8.398-1.438-12.712-2.314c3.097,1.879,6.411,3.421,9.835,4.421l-4.423,1.988l-0.219,1.543
		c-1.88,1.445-3.758,2.88-5.64,4.314c-0.986,5.64-5.964,9.293-4.977,15.365l4.534,2l3.877,9.282l8.063-0.771
		c9.955,4.64,17.367,9.184,28.646,10.508c2.87,9.725,2.099,15.584,11.943,21.332l-0.336-3.096l2.326,1.553
		c-0.119-1.989,0.218-3.978,0.881-5.856c-0.664-4.208-2.543-7.964-3.099-11.944l3.205-1.215l7.857-10.063l-7.52-9.402
		c2.542-3.422,4.64-6.963,3.759-11.388l-2.878-0.109l2.652-4.53l-1.879-3.87c5.529,0.108,11.171,0.773,16.472-0.999
		c3.097,1.879,5.977,3.543,7.859,6.747l6.735,1.328c-0.323,3.532,0.231,7.074,0.675,10.617l-1.662,1.096l0.554,1.556l4.423-1.001
		l2.434,2.99l4.303-1.772l2.879,0.555c0.664-2.433,1.327-4.748,2.207-7.183l2.434-2.327c2.771,2.76,5.977,5.859,6.194,9.847
		c1.216,1.207,2.545,2.423,3.978,3.423l-0.88,1.662l2.877,3.533l-3.431,0.109l1.325,2.323c1.988,0.664,3.759,1.772,5.194,3.316
		l-0.11,3.206c3.988-0.436,7.967,0.782,11.618,2.542c-2.879,1.663-5.976,3.097-9.292,3.868l-0.998,2.664
		c3.095-0.892,6.085-2.326,8.735-4.205l2.099,0.554l0.675,2.541l4.53,0.555c0.216,1.771,0.326,3.423,0.435,5.195l-2.424,3.206
		c-4.977,0.554-8.52,2.433-12.17,5.748c-8.292,0.445-17.911-0.553-25.983,1.772l-2.099,3.542
		c-6.518,1.099-9.845,7.735-13.604,12.376c6.968-5.966,11.281-8.507,19.908-11.497l4.424,3.654c-2.218,1.541-4.76,2.205-7.521,1.771
		c2.208,0.77,4.315,1.205,6.633,1.431l-2.546,3.1c1.77,1.652,3.758,3.206,5.868,4.531c0,0,2.205,1.772,3.976,2.206l2.881-0.987
		l1.761,2.205l1.881,0.664c-2.868,1.108-5.968,1.772-8.728,2.88c-1.218-0.11-2.548-0.11-3.76,0.217
		c-1.108,1.989-2.542,3.65-4.314,4.979l-1.663-1.435l0.337-3.543l5.642-3.357l-2.22,0.042l1.548-2.095l-0.549-1.002
		c-2.77,1.881-5.866,3.316-9.183,3.76c0.108,0.774,0,1.435-0.106,2.217c-1.547,0.88-9.619,3.316-10.282,3.755
		c-0.662,2.657-2.107,5.093-3.988,6.961l3.88,1.771l-3.543,1.773l-0.771-1.109c-3.206,1.999-11.171,4.868-11.171,4.868
		c0.108,1.108,0.216,2.097,0.335,3.207c-0.999,1.553-2.107,2.987-3.205,4.314c-0.783-1-1.444-1.881-2.218-2.88
		c0,0,0.663,3.204,1.988,5.087c-0.879,1.997-2.095,3.877-3.529,5.53l0.107-10.497l-2.217,1.434l3.097,15.258l-4.979,2.325
		l2.773,0.77c-2.659,0.881-9.738,5.416-9.738,5.416c-3.096,5.313-8.617,5.749-8.734,12.717c-0.11,5.528,3.214,11.166,4.65,16.59
		l-1.773,5.858c-0.997-0.34-7.297-7.968-8.292-9.956l0.11-6.073c-1.661-1.002-10.063-3.097-10.063-3.097s-7.52-2.542-9.729-3.322
		c-2.215,0.547-3.651,6.19-3.651,6.19c-1.433-0.88-10.833-1.99-10.833-1.99c-3.543-0.445-14.933,4.206-17.799,3.979l-2.881,2.88
		l0.555,7.521c-3.097,5.086-1.771,11.713-1.771,17.462c4.204,6.41,6.302,10.389,13.931,12.716c2.772-0.653,5.424-1.433,8.182-2.223
		c2.99-5.188,5.316-10.048,12.053-10.373l5.205,2.879l-2.326,2.87c0.11,2.085-0.106,4.301-0.664,6.412l-1.107-2.003l-0.88,2.111
		c0.664,2.327,0.664,4.654,0,6.973l-1.769,1.651c5.748,1.55,11.713-0.321,17.353,1.109l0.229,1.546l2.868,3.193
		c-2.315,4.541-1.324,9.412-1.107,14.284c2.218,2.082,4.207,4.083,5.87,6.626c3.642-0.677,7.289-1.219,10.942-2.104l4.421,1.322
		l2.763,4.326c0,0,0.999,0.109,3.206-0.219l-1.435,1.976c0.107,2.762-0.326,5.308-1.328,7.849l2.989,1.781
		c0,0,3.314-7.845,5.302-9.061l-2.095-1.33c3.76,0.543,6.744,2.87,9.616,5.519c3.977-0.323,8.075,0,11.835,1.112l6.074-2.109
		l4.42,3.215c1.003,0.873,2.22,1.545,3.438,1.978l-3.544,3.11c4.098,0.438,7.412,0.215,10.617,2.868l1.435,4.544
		c5.422,4.088,14.039,3.518,20.462,4.412c1.99,2.003,4.194,3.868,6.52,5.303c0.555,3.759,2.207,7.412,4.641,10.28
		c-2.652,3.544-6.195,5.758-8.074,9.845l4.314-1.327l6.191,2.543l-0.443,1.895c1.662-1.349,3.097-2.893,4.314-4.65
		c4.424-0.438,8.739,0.537,12.716,2.431l0.772,5.194c6.975-1.216,11.94-0.89,19.026,0c5.196,4.199,8.956,6.735,15.14,9.17
		L506.311,514.518z M801.647,528.341l-5.98,3.082c-9.391-0.214-7.625-9.927-6.844-16.229l2.652-5.76
		c-2.109-4.089-1.787-8.629-0.35-12.827l0.891-0.999c1.545-0.323,3.109-0.76,4.65-1.539l1.871,0.326l2.891-2.196l0.762-2.003
		l1.674-0.433c0.109-1.453,0.217-2.891,0.217-4.33l1.543,1.006l1.762-1.873l0.455-3.213l3.867,2.54
		c0.439,3.219,0.977,6.303,1.656,9.393l-2.436-1.087C811.708,503.801,804.948,517.275,801.647,528.341z M798.751,423.737
		c-7.061,8.083-24.207,15.71-25.748,27.535c-4.652,4.319-1,14.253,0,19.91l3.213,3.084c-0.998,4.434-0.672,11.388,1.328,15.497
		l-5.98,8.173c-7.193,3.086-13.381,6.854-16.258,14.711c3.111,4.864,1.111,8.849,2.002,13.934c-3.328,3.088-7.869,3.533-10.734,7.06
		l1.541,1.898c-1.98,15.581-18.018,26.643-31.383,31.62l-2.784-1.109c-1.756,0.652-3.523,0.895-5.409,0.546l-2.874,1.666
		c-2.645-0.235-5.408,0-8.063,0.55c-0.889-0.785-1.996-1.215-3.105-1.326c0-2.105-0.649-4.089-1.977-5.76
		c0.648-0.65,1.195-1.547,1.434-2.412c-2.781-8.74-8.63-15.152-11.953-23.449l0.229-1.329c-1.445-4.757-3.207-10.954-2.771-16.15
		c-4.75-8.063-10.061-14.932-9.618-24.427c2.653-4.194,2.103-9.392,6.193-12.494c1.882-4.201,1.219-8.305-1.324-11.938l1.218-2.779
		c-4.424-9.717-8.185-16.362-15.149-24.537l0.324-1.544l-1.758-2.998c0.772-1.329,1.88-2.303,3.204-3.197l-1.879-1.65
		c0.434-4.216,2.436-7.869,1.544-12.278c-1.988-0.894-3.871-2.002-5.532-3.433c-2.868,0.777-5.966,1.213-8.956,1.108l-1.434-3.873
		l-1.107-0.433c-0.771-1.219-1.883-2.217-3.207-2.893c-7.52-0.106-15.811,2.327-22.44,5.763c-1.445,0-2.881-0.438-3.988-1.328
		c-6.739,0.109-12.162,0.89-18.791,2.652c-6.639-4.411-14.156-8.524-19.571-14.476l0.99-1.003c-2.099-3.973-5.75-6.978-9.065-9.731
		l1.002-2.111l-4.315-1.651l-1.661-2.106c0.106-1.328,0.337-2.532,0.553-3.859l-3.097-3.761c4.314-3.315,6.964-12.942,3.542-17.367
		l0.663-1.651l-2.651-3.76c1.544-5.855,5.521-16.04,9.618-20.342c5.524-5.871,13.271-9.739,17.583-16.26l-0.554-4.974
		c1.542-1.544,2.312-3.315,2.312-5.423c2.773-2.653,5.979-4.75,9.403-6.629c0.66-2.434,1.877-4.76,3.542-6.63
		c2.866,2.099,6.303,2.977,9.727,2.099l1.325,0.772c3.433-1.109,6.302-2.652,9.736-2.543c8.184-5.412,18.574-3.543,27.862-5.532
		l1.762,1.218l5.533-2.098l3.095,1.544l3.097-0.665c-0.337,4.099-1.541,8.076-3.207,11.835l1.328,2.988h2.215l1.329,1.652
		c6.072,1.325,13.039,2.218,16.581,7.855c4.194,1.328,8.521,2.654,12.825,3.761c2.328-2.542,3.867-5.639,4.762-8.956l8.381,0.219
		c2.113,1.652,4.55,2.543,7.198,2.543l0.889,1.541c4.867-0.106,9.961,0.891,14.373,2.881l4.758-2.327
		c4.758,0.11,10.172,0.664,14.586,1.665c0.775,2.095,1.67,4.194,2.432,6.193c-1.217,1.989-1.979,4.197-2.303,6.412l-6.09-8.29
		c-1.328,10.061,11.496,17.798,11.934,27.969l3.76,3.98l1.434,10.28c5.09,5.09,6.764,8.628,9.303,15.375l0.438-1.447
		c3.217,3.881,8.408,7.641,12.498,10.834l-2.438,3.547c2.766,0.888,5.09,2.538,7.197,4.652l5.299-1.568l1.656,0.567l3.434-1.877
		l2.436,0.222c3.084-0.889,6.408-0.779,9.061-2.648l2.652,0.213C814.364,403.5,806.839,414.563,798.751,423.737z M682.892,291.504
		l-2.219,0.88c-2.868-0.99-5.518-2.869-7.398-5.303c3.315-0.107,6.966,0.216,10.388-0.555c-0.663,1.001-1.109,1.989-1.324,3.207
		L682.892,291.504z M1042.675,468.748c-4.189-6.196-10.926-13.607-13.713-20.129c-3.301-1.11-5.74-3.864-6.061-7.408
		c0.973,0.45,2.086,0.999,3.303,1.434c6.867-0.435,8.193,6.084,13.709,8.298l13.611,12.164c0,0,6.195,8.076,7.172,8.292
		c2.541,3.541,1.107,8.299,0.783,12.391c-1.545,0-3.764,0.104-3.764,0.104C1052.089,479.14,1046.788,474.832,1042.675,468.748z
		 M1070.431,491.196c-2.105-1-4.299-1.543-6.625-1.543l0.779-1.107l-5.213-1.324c0.563-0.349,1.219-0.349,1.779-0.349l0.762-1
		l4.326-1.655c2.328,0.791,4.412,2.002,6.299,3.437c4.652,0,9.391-0.893,13.824,0.786l0.762,1.756
		c1.891,0.89,3.98,1.328,6.084,1.219l0.217,3.086C1089.015,492.199,1075.194,489.874,1070.431,491.196z M1142.415,287.19
		c1.111-4.086,2.219-8.075,3.326-12.052l2.648-0.216l-0.213-2.109l1.762-0.554c0.887,3.434,1.215,6.963,1.65,10.506
		c-1.109,1.663-2.088,3.423-2.979,5.196l0.328,2.879l-1.764,3.87l1.107,2.097l-1.107,0.662c-0.451,1.326-1.324,2.327-2.541,2.88
		l0.434-2.989c-1.867,0.881-3.193,2.22-3.979,4.1l-1.324-1.447l-3.107,1.556l-2.414-1c-1.563,1.881-3,3.869-4.543,5.747l-2.43-3.76
		c-3.438-1.324-7.305-0.326-10.85,0.12l-0.756,1.869l-2.984-0.434l-0.346-1.435c3.977-4.205,11.719-6.53,17.256-5.206
		c1.436-2.977,3.33-5.856,5.756-8.182l-0.451,3.435C1137.765,291.504,1140.304,289.516,1142.415,287.19z M1151.374,256.121
		l1.43-1.88c2.217,2.651,4.979,4.868,7.977,6.629l4.416-1.651l-0.789,2.435l1.004,2.542l-4.088,0.988l-3.762,3.761
		c-3.646-1.771-7.516-0.879-11.277-0.879l3.432,2.314c-1.434,0.446-2.758,1.107-3.865,2.217c-0.109-1.327-0.566-2.544-1.328-3.759
		c1.113-1.545,1.869-3.207,2.309-4.979l3.324-1.434l1.535-2.881L1151.374,256.121z M1218.483,492.412l1.107,2.765l3.201,0.541
		l0.451,1.673l1.656,0.436l-0.656,1.003l3.41,2.863c-7.514-2.326-11.924-3.976-17.338-9.841c-2.652-0.655-5.328-1.219-7.982-1.655
		l0.463,1.655l-1.221,0.889h-4.432l3.977,2.545c-2.758,1.322-5.955,1.539-8.955,1.002l-3.633-3.875l-3.775,0.328l0.67-1.654
		l-1.76-2.775l1.328-0.439c-1.785-1.54-3.111-3.435-4.104-5.627c-4.525-1.888-9.287-3.544-13.824-5.323l-1.656-3.196l-2.326,3.646
		c-1.107-1.889-2.412-3.646-3.977-5.19c2.545,0.538,4.871-0.106,6.758-2.003l-6.088,0.325l-1.213-2.082l-3.109-0.892l0.568-2.004
		c2.219-0.971,4.521-1.321,6.951-1.083l3.758,2.65l1.328,5.846l0.461-0.979l4.41,1.543l1.885-2.758l1.98-0.242l1.217-1.539
		c9.063-1.324,18.801,5.543,27.434,7.63c0.998,1.437,2.215,2.546,3.758,3.321l1.215,2.98l6.844,4.089l-2.863,1.671L1218.483,492.412
		z M1125.157,304l-0.979,2.424l-2.996-0.11l-3.873,2.327l-1.107-2.216c2.004-1.207,4.002-2.424,6.088-3.423L1125.157,304z
		 M1114.118,305.989c-0.455,3.642-0.111,7.846-3.215,10.617c-0.111-0.889-0.439-1.662-0.885-2.434l-1.223,1.652
		c-0.438-1.879,0-3.76,1.223-5.195c-1.334-1.218-2.77-2.326-4.313-3.206c1.109-0.334,2.219-0.661,3.326-0.881l1.324-1.553
		l1.979,1.108L1114.118,305.989z M1105.921,448.404l-2.1,0.431l0.234,1.33c1.219,0.887,1.977,1.998,2.541,3.432l-0.457,1.438
		l3.867,3.649l-4.408,0.672l-0.676,6.068l-4.951,3.433c0,2.434-0.785,4.758-2.004,6.846l-3.975,0.781
		c-1.324-1.437-3.002-2.438-4.865-2.974c-1.658,0.867-3.436,1.43-5.201,1.755l-0.563-3.084l-5.521,0.87l-0.545-5.196l-2.777-2.98
		l0.781-0.546c-0.781-1.776-1.545-3.642-2.326-5.43l2.326-4.192c0.779,1.65,1.889,2.869,3.434,3.868
		c5.408,0.431,9.818-2.542,15.258-2.218c1.326-3.646,3.652-6.629,4.975-10.279L1105.921,448.404z M1217.374,634.275l-0.537-1.108
		l-2.984,2.862l-2.777-0.324l-0.326-1.54l-1.326-0.673c-1.221-2.87-1.76-5.628-3.199-8.399l0.113-3.208l5.74,2.433
		c1.998-0.321,3.865-0.673,5.867-1l1.217,4.762C1218.054,629.946,1217.485,632.061,1217.374,634.275z M1234.96,589.153
		c-5.963,4.324-9.738,14.497-11.066,21.453l-7.387,1.108c-1.457,1.54-3.324,2.648-5.32,3.324c0.451,0.432,0.561,0.982,0.451,1.54
		c-1.432-0.67-2.541-1.885-3.215-3.434l-2.436-0.107l0.35-2.328c-1.568,1.657-3.432,3.004-5.648,3.765
		c-4.41-2.657-9.613-2.87-12.936-7.52l-0.889-5.631l-2.107-2.216h-2.305l1-2.223l-1.891-3.408l-1.434,3.738
		c-1.002-0.109-1.898,0-2.764,0.455l2.193-2.758c0.459-2.896,0.785-5.654,1.217-8.52c-1.539,3.433-6.625,9.737-6.625,9.737
		l-3.088-1.892v-2.542c-1-0.651-4.109-4.52-4.109-4.52l-2.303-3.324c-12.057-0.896-29.299-2.436-36.82,9.949l-1.561-0.566
		l-1.98,0.786c-2.771-0.545-5.539-0.106-8.303,0.648c-2.539,2.436-5.303,4.438-8.383,6.091c-3.658,0.237-7.199-0.441-10.174-2.548
		c0.107-3.192,0.65-6.302,1.305-9.389c-3.98-9.171-7.5-16.93-12.152-25.637l3.652,1.752l0.434-2.647l-2.869-4.766
		c1.107-2.976,1.867-6.191,2.326-9.385l1.328,1.433c1.645-3.002,4.977-4.977,7.734-7.085c7.953-0.763,17.125-5.843,21.777-12.151
		l-0.76-1.998l2.414-3.433l2.998-1.327c0,0,4.756-3.765,6.955-4.739c0.564-1.33,1.326-2.674,2.215-3.758
		c0.996,0,1.871-0.235,2.764-0.783l4.758,2.105l1.762,1.765c1.566,0.109,2.998,0.109,4.541,0.214l0.656-0.999l-1.199-1.65
		l1.541-2.654l1.98-1.107l1.215-3.084l1.543-0.999c2.217,0.216,4.219-0.216,6.199-1.219c-0.982-0.565-1.873-1.326-2.424-2.323
		c4.199,1.65,10.4,3.972,14.701,2.648c0,0,2.324,0.784,3.102,0.784l0.984,1.218c-1.109,1.323-2.322,2.541-3.521,3.76
		c-0.127,1.759-0.676,3.302-1.783,4.627c3.977,3,8.953,6.195,13.822,7.193c1.438,2.435,3.545,3.321,6.199,2.655
		c4.082-5.414,1.535-13.259,5.629-17.586l-1.547-0.434c1.436-1.763,2.654-3.759,3.541-5.868c2.654,3.991,3.873,7.979,4.982,12.714
		c1.217-0.105,2.43,0.242,3.432,0.895c2.758,3.758,2.865,8.305,5.52,12.054c-0.326,1.548-0.219,2.987,0.436,4.31l3.646,2.109
		l0.57,0.978c1.865,0.781,3.758,1.886,5.297,3.321l-0.107,1.762c1.547,2.114,2.873,4.441,4.09,6.76l0.648-0.786l2.002,0.681
		l0.674,4.302c3.414,3.105,6.738,6.302,8.176,10.846c-0.109,1.65-0.33,3.196-0.785,4.861l0.896,1.198
		C1239.396,576.217,1238.067,583.065,1234.96,589.153z M1269.235,171.205c-4.979,2.544-9.064,6.628-14.473,8.617l-4.439-2.095
		c-3.301,0.444-6.41,1.771-8.736,4.204l0.57-3.543c-2.004,0.448-3.652,1.555-4.871,3.316l-1.891-0.774
		c-1.764,0-3.199,0.557-4.521,1.665l0.109,1.436c-1.648,1.988-3.221,4.086-4.76,6.303l1.893,2.433l2.545,0.989l-1.898,2.216
		l2.002,2.869l-0.783,3.435l-0.758-2.216c-2.217,5.747-3.105,10.507-10.063,11.507l-1.107,2.099l0.76,2.543l-3.523,1.326
		c-2.326,3.649-5.324,6.628-8.195,9.835c-2.76-11.054-7.404-23.877,0.33-33.831c7.086-3.759,14.494-8.4,19.252-15.149l3.633-1.215
		l3.322-3.653c-0.169-1.201-0.067-2.41,0.252-3.615l-14.396,7.159c0.893-2.098-21.016,3.206-22.563,5.64l3.652,2.544
		c-4.652,1.108-9.631,0.996-14.477,1.658l3.201-1.334c0,0-6.311-1.99-7.852-2.977c-1.893,0.327-3.537,1.325-4.756,2.76
		c-6.633-1.435-13.719-0.555-20.453-0.996c-9.957,6.528-21.674,15.374-29.645,24.438l5.754,1.108l3.432,3.314l3.875-1.542
		l6.303,1.651c6.191,5.975,1.322,23.667-3.328,29.742c-5.975,7.967-13.035,19.908-22.887,22.896
		c-0.996-0.445-1.975-0.999-2.861-1.663l-2.219,0.219l0.563-1.106c-2.783,2.432-8.088,9.952-8.088,9.952
		c-1.865,2.542-4.299,4.645-7.299,5.532c0.455,6.52,6.299,9.953,6.865,16.693l-2.002,3.757c-3.303,0.337-6.084,1.882-9.385,3.1
		c0.652-3.761,0.762-7.294-1.672-10.28c0.885-0.773,1.887-1.327,2.994-1.554l-1.107-1.989c-1.434,0-2.975,0.113-4.43,0.227
		l-2.09-2.77l2.219-2.314l-0.566-3.76l-3.756-1.556c-4.094,0.771-7.74,2.772-11.287,4.869l2.223-2.434l-1.549-0.879l2.982-4.208
		l-2.328-1.434c-3.977,2.652-7.52,6.075-11.818,7.956l-1.896-0.664l1.348,4.531l2.873,1.555l1.109,2.87l4.52-2.763
		c2.324,1.111,4.76,1.772,7.404,1.772l-0.428,2.325l-5.199,0.543l-3.646,2.001l-3.221,5.413c3.432,2.217,7.738,10.94,7.738,10.94
		c0.563,2.111,0.678,4.315,0.455,6.534l-4.762,2.096c2.328-0.217,4.525,0.109,6.74,1.001l-0.43,1.987l-1.549,4.314
		c0,0-4.08,5.521-6.627,7.074v3.206c-1.238,1.435-6.432,6.411-6.756,7.292c-4.537,2.663-9.955,7.412-15.479,4.313
		c-2.867,5.086-8.41,3.979-12.389,7.307l0.328,2.095c-1.436-2.544-3.52-4.531-6.178-5.855c-0.885,0.987-4.1,3.421-4.1,3.421
		c-3.873,1.44-5.738,4.87-6.074,8.956c5.525,9.073,14.479,14.159,12.26,26.543c-2.215,2.195-5.299,3.31-8.514,3.765
		c-0.109,1.217-0.328,2.436-0.658,3.65c-2.434,1.198-4.865,2.761-6.975,4.414c0.57-2.217-4.52-7.633-4.52-7.633l-8.301-7.629
		l-1.328-3.311l-3.537,1.425c-0.439,4.758-3.412,9.083-3.096,13.711l2.547,0.459c1.109,2.544,2,5.191,2.547,7.848
		c3.652,1.431,6.404,4.299,9.17,7.058c1.438,4.874,1.219,10.065,4.434,14.172c-3.869-0.563-7.301-2.431-10.281-4.758
		c-0.455-2.109-1.439-3.868-2.994-5.305c-0.221-3.432-1.113-7.085-3.529-9.522c0,0-3.664-4.081-5.107-5.518
		c0.895-10.501,3.113-25.874-5.518-34.502l-2.324,3.544l-3.438,1.649l-1.543-0.769l-2.539,0.551
		c1.783-4.204,0.344-7.734-0.545-11.939l-1.996-0.11l-10.609-14.704l0.111,3.534l-5.871,2.108l-7.064,0.77
		c-2.324,7.737-19.014,19.461-26.1,23.55c0.109,6.192,0.221,10.718-1.109,16.802c-1.434,0.998-2.436,2.324-2.764,3.867l0.438,1.675
		c-2.191,0.867-3.982,2.196-5.303,4.189c-7.521-9.628-22.561-35.052-17.021-47.54l-1.432-5.533l-2.436,3.871l-4.754,1.772
		l-6.98-6.413l5.541-2.215l-5.869-0.664c-1.326-1.435-6.406-6.969-7.955-8.29c-3.434-1.11-6.977-0.446-10.387-0.882
		c-8.088,2.096-16.582,0.771-24.457-1.662c-0.754-1.771-1.645-3.535-2.752-5.194l-5.736,2.096
		c-11.74-1.108-12.393-12.375-21.238-15.705c-1.998,1.664-3.867,3.329-5.871,4.87c0,0,3.221,3.977,4.092,5.976
		c1.887,1.099,3.543,2.544,5.08,4.086l-0.537,1c0.67,2.317,4.648,1.761,4.648,1.761c0.326,2.662,0.758,5.424,1.322,8.076
		c3.09,0,6.084-0.447,9.068-0.664c2.863-2.762,6.189-4.979,8.734-8.074l-0.779,2.877l1.217,3.535
		c3.543,3.877,8.734,4.425,11.949,8.518c-2.328,4.641-5.975,8.399-7.979,13.27c-4.08,1.324-6.059,5.748-10.059,6.855
		c-4.518,1.22-9.279,2.314-11.609,6.741c-9.063,2.106-20.447,11.386-29.729,10.059c-4.324-12.821-6.979-22.332-16.93-32.284
		c0.348-5.525-2.436-10.833-7.285-13.485c-1.104-5.532-5.648-9.509-9.082-13.607l1.219-5.194c-1.549-2.435-2.545-5.195-2.875-8.064
		c1.547-4.432,3.762-8.519,5.869-12.723l-0.996-4.196l1.215-3.989l-0.891-1.097c-3.76,0.217-7.064,1.772-10.605,2.87
		c-2.438-1.882-5.41-2.98-8.408-3.424l-1.652,2.649l-2.436,0.11l-1.76-2.432c-1.324-0.11-2.672-0.11-3.998,0
		c-0.654-1.217-1.654-2.208-2.871-3.093l-0.111-2.102l-2.43-2.326l1-0.664l0.109-1.434l-0.682-1.325l-1.975-0.879l6.09-4.314
		c1.648,0.444,4.082-0.228,4.082-0.228l3.871-1.1l-2.432-0.555l1.105-1.324c1.863-0.228,3.654,0,5.408,0.554
		c4.328-2.88,9.955-4.651,15.041-4.424l3.764,1.652l0.998,1.553c6.199,1.652,11.064,0.99,17.477,0.88l0.537-7.847
		c-5.41-1.662-7.842-7.074-13.605-8.29l-1.971-2.544l3.762-3.542l-0.789-2.651l5.197-3.099c-6.525,1.436-13.154,4.871-19.67,5.415
		c2.434,2.659,6.088,4.647,9.713,3.759c-2.975,1.445-6.17,2.322-9.064,3.877l-2.432-0.119l0.459-2.206l-3.869-1.771l3.199-1.661
		l-4.764-2.315l-0.438-2.652c-3.545,0.665-5.979,3.423-8.625,5.304c-0.328,0.88-0.328,1.879-0.107,2.758l-2.877,2.001
		c-1.539,3.532-3.102,6.956-4.08,10.606c0.979,2.109,2.65,3.433,4.738,4.207l-1.654,1.435c-3.191,0-6.195,1.878-8.625,3.986
		c0,0-5.633-4.65-9.503-2.769l2.437,2.649l-2.437,1.001l-3.212-2.542l-1.004,0.106c0.345,2.098,1.108,4.208,2.112,6.087
		l-0.785,0.435l-1.327,0.663l5.216,2.878l-0.242,2.208l-3.519-1.097l0.329-0.448c-7.307-1.434-8.844-4.639-13.822-9.292
		c0.652-2.204,0.652-4.531,0.107-6.735c-3.215-2.665-6.734-4.869-10.281-7.195l-2-0.11l-3.423-3.422l1.327-0.108l-4.313-4.867
		l-1.653,2.542l-1.325-3.206l0.554-1.108h-2l-3.532,2.326l0.88,1.097l-0.554,1.445c2.772,4.194,6.303,7.737,9.181,11.824
		l4.097,0.553l0.438,2.218c2.865,1.107,5.762,2.435,8.172,4.423l0.781,2.87c-1.328-1.218-2.65-2.208-4.3-3.206l-2.216,2.107
		l2.107,2.651l0.108,1.652l-1.678,0.662l-1.435,2.326l-2.76,1.435l2.107-3.097l-1.781-5.195c-1.869-0.77-3.53-1.763-5.074-2.979
		l0.541-0.444c-8.176-4.208-13.929-9.955-20.23-16.476c-4.425,1.434-8.292,4.086-12.272,6.303c-1.541-1.218-3.312-1.662-5.301-1.553
		l-4.423,3.324l0.327,2.543c-2.434,2.208-8.739,6.075-8.739,6.075l-2.758,2.326l0.336,5.858l-3.759,4.758l-2.543,0.881l-2.11,2.651
		c-4.53,1.326-9.172-0.326-12.715,3.434l-1.987-0.445l-2.096-3.424c-2.99-0.228-5.979-0.335-8.849-0.117
		c0.436-2.208,0.558-4.304,0.558-6.521l-1.665-0.446l-0.881-0.664c1.989-5.301,2.316-10.605,3.207-15.918l-2.11-2.098
		c7.197-6.085,19.573-1.989,28.2-2.99l1.882-4.975l-0.77-0.11l0.66-3.869l-0.227-3.651c-1.545-1.879-3.096-3.867-4.641-5.75
		l-1.434,0.111c-2.109-1.218-4.421-2.208-6.857-2.763c0.327-0.661,0.77-1.108,1.325-1.551l-1.663,0.226l4.423-1.771
		c2.665,0.446,5.207,0.446,7.856,0.107c0-1.771-0.555-3.421-1.662-4.854h2.543l1.879,1.539l3.761-0.336
		c3.761-3.867,6.966-8.953,12.823-9.389l-0.881-0.892c2.209-1.434,3.653-3.422,4.316-6.074l2.097,0.663
		c-0.553,0.554-0.88,1.212-0.989,1.989c0,0,2.098-2.988,1.433-3.762c1.329-1.106,2.87-1.661,4.642-1.77h1.328l2.77-1.215
		l1.761,0.334l1.218,0.436l2.107-1.65c-0.445-0.664-2.001-2.435-2.001-2.435c0.337-2.217-1.987-6.087-1.987-6.087l0.783-2.315
		l-0.446-2.106c1.326-0.219,2.437-0.88,3.207-1.88l0.992,0.891l1.106-2.109l2.324,0.337l1.328,1.988l-0.216,2.327
		c-1.219,0.435-2.325,1.217-3.1,2.207l-0.892,3.313l1.667,2.663l2.325,0.772l0.771,1.649l2.652,0.338
		c1.662-0.998,3.541-1.772,5.423-2.207c1.877,1.436,3.867,2.76,5.854,3.978l1.773-2.109c3.868-1.542,7.956-2.649,12.042-3.756
		l1.998,2.323c3.191-0.878,5.869-2.649,8.951-3.651c0.109-2.543-0.216-5.301-0.997-7.736c0.781-1.218,1.216-2.436,1.544-3.762
		l4.651-2.313c1.218,1.096,2.22,2.313,2.996,3.754l3.304-2.321l0.677-4.758l-1.437,0.555c-0.563-1.435-1.457-2.762-2.544-3.871
		l0.975-1.653c5.873-2.213,10.854-0.335,16.592-1.333l-0.654-1.989c1.98-0.327,3.979-0.553,5.977-0.773l-0.783-1.772l-2.326-0.217
		l-0.887-2.432l-3.766,1.433l-3.191-0.989c-0.57,0.989-1.434,1.771-2.545,2.205c-2.326-0.217-4.763,0.23-6.976,1.001l-3.632-1.556
		l-2.216,0.447c-0.891-0.88-1.778-1.543-2.865-2.208c0.215-5.312-3.33-9.843-0.457-14.932l3.104-0.877l0.979-2.436l1.896-0.337
		c2.433-2.759,5.082-5.193,8.169-7.073l-0.438-2.762c-2.761-1.879-6.192-2.881-9.493-3.097c-2.673,2.098-4.549,4.64-6.438,7.293
		l0.891,2.652c-1.219,2.659-3.434,4.311-6.297,4.648c-2.547,2.207-5.635,3.533-7.961,6.076c-0.674,3.097-0.781,6.422-0.212,9.63
		c2.647,1.214,5.085,3.312,6.626,5.747c-2.869,1.88-6.414,2.316-9.738,1.436c2.437,0.998,4.867,1.217,7.412,0.661
		c-0.889,0.446-1.652,0.773-2.545,1.217l-1,1.773c-1.217,0.327-2.543,0.663-3.759,0.99l1.216,2.542
		c-1.648,3.651-2.541,7.521-3.647,11.277c-1.762-0.105-3.64,0.111-5.413,0.558l-0.218,1.988l-5.422,0.892v-2.325l-1.433-2.219
		l0.77-0.988c-1.432-3.095-3.759-5.857-4.311-9.401l-0.772-0.555c0.104-1.108-0.112-2.207-0.775-3.096l0.447-1.435l-1.662-0.336
		l-0.447-2.096c-2.869,3.977-7.073,6.857-11.713,8.735c-1.989-0.554-3.979-1.325-5.859-2.216l-1.773-7.183l-0.892-2.99l-0.323-2.095
		l0.218-4.534l1.436-3.867l3.094-1.002l1.108-1.771l3.435-0.108l-1.663-1.881l4.314,0.447c2.759-3.096,5.749-6.086,8.844-8.955
		l2.544-0.445c0.989-1.881,2.544-3.205,4.532-3.979l-0.887-1.988c0.995-2.107,2.55-3.65,4.754-4.541l-1.662-1.762l3.097-1.324
		l-0.772-1.447c3.651-1.324,5.972-4.313,8.964-6.628l1.107,0.445l0.33-2.881c2.084-2.326,4.303-4.421,6.518-6.747
		c1.766,0.663,3.543,0.663,5.305,0.109l1.893-2.762c0,0,2.654-0.216,4.299-1.65l8.307-2.663c2.651-1.218,5.304-2.205,8.062-3.206
		c0,0,0.891,1.435,2.867-0.217l4.654-0.554l3.086,1.435l5.08,1.662l1.57,2.435l-6.301,0.434c2.191,2,5.193,2.99,8.172,3.097
		l4.086-1.987c0,0,22.123,10.282,32.947,15.041l0.996,3.097l-2.324,3.87c-11.607,0.553-20.012,0.998-30.842-3.316
		c2.877,2.651,5.873,5.087,9.064,7.182l-1.322,3.208l1.76,4.761c3.434,2.205,7.191,4.42,11.389,3.76l0.24-1.772l-2.787-0.892
		l-1.975-3.422c4.521,0.554,9.283,2.542,13.826,1.771c-0.574-2.098-0.891-4.206-1-6.302c3.082-1.328,6.082-2.88,8.953-4.534
		l5.516,2.207l0.998-5.748c-0.646-0.773-1.43-1.544-2.082-2.326l1.654-4.857l-1.219-2.436l4.652,0.215l5.738,4.653l-5.867,3.088
		l8.518,2.431c3.215-5.748,14.389-11.271,20.691-10.61l3.516-1.995l-0.975,3.097l0.547,1.446h3.324l1.756-1.772
		c5.414-0.106,10.498-3.319,15.818-2.216l-0.127,2.542c1.893-1.217,3.758-2.205,5.762-2.979l-1.432-4.976
		c9.172-3.205,20.34,3.314,27.756,8.182l3.863-3.541l-3.324-0.557l-0.893-3.314l-4.52-2.542l2.221-3.097
		c-1.002-1.664-1.678-3.424-2.109-5.303c5.52-2.325,6.084-8.075,10.061-11.942c4.197-0.109,8.174,0.662,12.387,1.326
		c-1.213,2.868-2.322,5.858-3.215,8.737l3,5.411c-1.322,3.098-1.322,6.53-1.109,9.954l3.199,3.761
		c-1.109,3.421-2.766,6.411-5.846,8.4l-1.002,2.542c-3.006,0.337-6.088,0.337-9.064,0.108c3.088,1.88,6.41,3.098,9.934,3.205
		c5.104-2.313,6.867-6.182,10.953-9.509l-1.326-3.977l8.957-1.772l2.881,4.771l1.553-1.891l-1.219-3.652
		c-4.764-2.758-8.738-3.096-14.041-3.541l-0.891-3.206l1.65-3.532l-2.434-6.519c3-2.543,4.762-6.303,5.871-9.956l2.322,1.434
		c-0.455,2.761-0.564,5.641-0.455,8.522c3.869,1.204,7.734,1.433,11.389,2.976l-1.762-3.65l-5.195-0.881l-1.541-1.325
		c7.521-4.094,16.363-1.434,24.104,0.444l-2.436,4.197v4.421l2.324-2.869l0.764,3.646c0.67-3.32,1.109-6.636,1.217-9.949
		c-1.656-0.664-3.088-1.879-3.873-3.434c-1.648-0.326-3.303-0.99-4.871-1.761c-0.102-2.326-0.754-4.421-1.973-6.423
		c7.844-1.542,15.26-2.422,23.213-2.975l-2.213,2.432l5.318-2.66l-2.885-4.534c9.623-12.376,33.184-13.039,47.547-11.822
		l2.654-3.216l2.869-0.773l0.213-1.989l8.855-5.855l5.65,0.216l-2.219,4.099c3.436,0.106,6.848,0.432,10.281,0.879l-3.088,3.542
		l3.758,0.219l3.088-1.882c7.74,0.217,11.602,2.762,18.688,4.315l1.547,1.652l-2.217,2.771l1.998,1.543
		c-10.281,5.748-21.885,11.065-30.84,18.354c5.301-2.975,12.365-3.758,18.236-5.412l0.107-2.987
		c2.975,1.436,6.518,1.879,9.738,1.216l2.428,3.979l2.326-2.546c5.311-1.106,10.721-0.106,15.916,0.231l1.107,3.64
		c4.973,1.446,9.957,0.11,14.824,1.662c1.537-2.432,3.305-4.64,5.191-6.747c5.518,1.552,10.719,3.434,15.906,5.529
		c-3.084,1.001-6.059,2.326-8.602,4.208c6.738,2.543,13.145,6.412,19.67,9.51l4.432-5.871l6.629,3.544l6.736-1.435
		c0,0,7.416,0.107,8.846-1.001l4.203-4.084l-3.203,0.107c9.957-2.652,13.719-3.432,24.666-1.662l-2.779,1.988l3.545,0.554
		l4.084-0.988l10.414,2.096l-3.781,1.988l8.08,2.219l3.871,4.083c9.52-1.107,16.365-1.54,25.861,0.225l2.324,4.753l4.113,2.437
		l0.758,3.097c2.758-2.774,6.518-3.208,10.281-3.761c4.539,2.869,7.627,0,12.279,0.772c3.65,0.664,6.303,3.543,9.631,5.194
		l4.627-1.219l-2.871-4.531l1.545-2.541c11.174,0.77,24.994,0.89,34.73,7.303c0,7.183,0,14.481,0.111,21.667l-2.896,3.977
		c-1.975,1.111-3.971,1.436-6.059,1.002l-1.109-1.771l-2.004,0.77l-2.215-0.661l-0.109,2.217c2.111-0.121,4.004,0.664,5.314,2.314
		c1.234,0.228,2.32,0.663,3.318,1.554l-0.547,2.652l3.088,3.869l1.324-0.218l-2.758,2.759l-5.195-1.988
		C1278.646,168.324,1273.776,168.989,1269.235,171.205z M1310.483,632.383l0.439,3.001c-2.654,0.432-4.98,0.975-7.416,1.975
		l0.682,3.111l-1.895-0.348l0.887,1.889l-1.76,3.764l-5.977,2.647l-5.762-2.108l-2.193,0.459l-0.561-1.566l0.455-1.089l1.193,0.438
		c5.328-9.282,16.828-11.608,20.24-22.776l2.992,3.19l3.436,0.123l0.107,1.553C1314.138,628.858,1312.595,630.842,1310.483,632.383z
		 M1325.743,615.909v2.889c-1.65,2.301-3.543,4.52-5.52,6.629c-1.566-2-2.215-4.328-2.105-6.864l-2.652-1.435l-0.566-2.223
		c1.672-1.539,2.654-3.41,3.109-5.63c-0.895-2.863-2.326-5.733-4.328-8.062l1,1.654c-2.219-2.438-3.758-5.197-5.414-7.955
		l1.545-0.111l0.434,1.763c3.758,1.004,4.977,4.547,6.654,7.739l-0.111,1.216l2.76,1.436l-0.324-1.981
		c1.33,2.546,3.305,4.413,6.063,5.521l3.76-1.54l0.893,4.083C1329.616,614.581,1327.851,615.581,1325.743,615.909z"/>
</g>
</svg>
