<?xml version="1.0" encoding="utf-8"?>
<!-- Generator: Adobe Illustrator 16.0.0, SVG Export Plug-In . SVG Version: 6.00 Build 0)  -->
<!DOCTYPE svg PUBLIC "-//W3C//DTD SVG 1.1//EN" "http://www.w3.org/Graphics/SVG/1.1/DTD/svg11.dtd">
<svg version="1.1" id="Layer_1" xmlns="http://www.w3.org/2000/svg" xmlns:xlink="http://www.w3.org/1999/xlink" x="0px" y="0px"
	 width="89.952px" height="39.529px" viewBox="123.72 21.57 89.952 39.529" enable-background="new 123.72 21.57 89.952 39.529"
	 xml:space="preserve">
<linearGradient id="SVGID_1_" gradientUnits="userSpaceOnUse" x1="329.7202" y1="-251.6631" x2="419.6724" y2="-251.6631" gradientTransform="matrix(1 0 0 -1 -206 -210.3281)">
	<stop  offset="0" style="stop-color:#33DAFF"/>
	<stop  offset="0.1288" style="stop-color:#33DAFF"/>
	<stop  offset="0.3295" style="stop-color:#EFFF48"/>
	<stop  offset="0.3788" style="stop-color:#EFFF48"/>
	<stop  offset="0.5758" style="stop-color:#FF23C0"/>
	<stop  offset="0.9015" style="stop-color:#CD1C9A;stop-opacity:0.3409"/>
	<stop  offset="1" style="stop-color:#FFFFFF;stop-opacity:0"/>
</linearGradient>
<path fill="url(#SVGID_1_)" d="M124.015,46.37c0.359-0.375,1.346-0.324,2.008-0.2c1.063,0.199,2.068,0.787,3.13,0.896
	c1.616,0.163,3.261,0.072,4.895,0.063c2.55-0.013,5.102,0.167,7.047-2.13c0.835-0.986,1.951-0.785,2.632,0.515
	c0.27,0.514,0.643,0.973,1.208,1.811c0.981-5.341,1.902-10.279,2.793-15.223c0.55-3.053,1.003-6.121,1.622-9.157
	c0.105-0.523,0.824-0.92,1.259-1.373c0.354,0.446,0.783,0.856,1.039,1.354c0.204,0.396,0.195,0.902,0.282,1.36
	c2.021,10.76,4.041,21.52,6.146,32.722c0.271-0.695,0.383-0.958,0.476-1.227c1.385-4.031,2.724-8.079,4.171-12.089
	c0.604-1.675,1.797-1.827,2.905-0.452c0.582,0.722,0.961,1.61,1.559,2.316c0.404,0.48,1.026,0.776,1.552,1.154
	c0.297-0.494,0.714-0.953,0.867-1.487c0.406-1.415,0.604-2.894,1.086-4.276c0.178-0.511,0.88-1.049,1.419-1.145
	c0.321-0.057,0.982,0.651,1.157,1.136c0.474,1.313,0.766,2.688,1.136,4.037c0.287,1.049,3.361,2.827,4.374,2.583
	c1.241-0.3,2.495-0.752,3.748-0.765c6.221-0.055,12.442,0.024,18.665,0.031c4.161,0.006,8.321,0.006,12.483,0.006v0.722
	c-10.151,0.055-20.303,0.116-30.454,0.226c-0.986,0.01-2.188,0.559-2.898,1.257c-1.282,1.256-2.239,1.476-3.453,0.009
	c-0.464-0.561-1.146-0.986-1.805-1.324c-1.058-0.545-2.178-0.965-3.343-1.469c-0.135,2.012-2.053,1.603-3.461,1.346
	c-1.409-0.258-2.701-1.154-4.17-1.828c-1.547,4.44-3.176,9.214-4.91,13.949c-0.207,0.57-0.994,0.928-1.513,1.383
	c-0.359-0.513-0.931-0.983-1.042-1.545c-0.829-4.177-1.553-8.375-2.336-12.561c-1.157-6.187-2.334-12.37-3.505-18.554
	c-0.514,0.393-0.667,0.791-0.746,1.202c-1.219,6.404-2.413,12.813-3.665,19.211c-0.103,0.515-0.582,0.957-0.886,1.433
	c-0.525-0.356-1.193-0.609-1.549-1.091c-0.729-0.988-1.29-2.099-1.919-3.159c-0.014,0.231-0.027,0.461-0.041,0.693
	c-2.042,0.324-4.074,0.779-6.129,0.938c-2.166,0.169-4.36-0.046-6.527,0.107c-1.14,0.082-2.234,0.69-3.378,0.873
	c-0.659,0.106-1.655,0.075-1.993-0.324C123.614,47.932,123.655,46.746,124.015,46.37z"/>
</svg>
