<?xml version="1.0" encoding="utf-8"?>
<!-- Generator: Adobe Illustrator 16.0.0, SVG Export Plug-In . SVG Version: 6.00 Build 0)  -->
<!DOCTYPE svg PUBLIC "-//W3C//DTD SVG 1.1//EN" "http://www.w3.org/Graphics/SVG/1.1/DTD/svg11.dtd">
<svg version="1.1" id="Layer_1" xmlns="http://www.w3.org/2000/svg" xmlns:xlink="http://www.w3.org/1999/xlink" x="0px" y="0px"
	 width="89.953px" height="39.529px" viewBox="51 22.571 89.953 39.529" enable-background="new 51 22.571 89.953 39.529"
	 xml:space="preserve">
<linearGradient id="SVGID_1_" gradientUnits="userSpaceOnUse" x1="318.1343" y1="-252.6641" x2="408.0864" y2="-252.6641" gradientTransform="matrix(-1 0 0 -1 459.0869 -210.3281)">
	<stop  offset="0" style="stop-color:#FF23C0"/>
	<stop  offset="0.1288" style="stop-color:#FF23C0"/>
	<stop  offset="0.3295" style="stop-color:#EFFF48"/>
	<stop  offset="0.3788" style="stop-color:#EFFF48"/>
	<stop  offset="0.5758" style="stop-color:#33DAFF"/>
	<stop  offset="0.9015" style="stop-color:#33DAFF;stop-opacity:0.3409"/>
	<stop  offset="1" style="stop-color:#FFFFFF;stop-opacity:0"/>
</linearGradient>
<path fill="url(#SVGID_1_)" d="M140.658,47.371c-0.359-0.376-1.346-0.325-2.008-0.201c-1.063,0.199-2.068,0.788-3.13,0.896
	c-1.616,0.164-3.261,0.072-4.895,0.063c-2.551-0.013-5.102,0.167-7.047-2.129c-0.835-0.987-1.952-0.786-2.633,0.515
	c-0.269,0.514-0.643,0.972-1.207,1.81c-0.982-5.341-1.901-10.279-2.793-15.223c-0.55-3.053-1.003-6.121-1.622-9.157
	c-0.106-0.521-0.824-0.919-1.26-1.372c-0.354,0.447-0.783,0.855-1.038,1.354c-0.204,0.397-0.196,0.903-0.282,1.361
	c-2.021,10.76-4.041,21.52-6.146,32.722c-0.271-0.696-0.383-0.959-0.477-1.227c-1.385-4.032-2.723-8.08-4.17-12.089
	c-0.604-1.676-1.797-1.827-2.905-0.453c-0.582,0.724-0.962,1.61-1.558,2.317c-0.406,0.48-1.028,0.776-1.553,1.154
	c-0.297-0.494-0.714-0.953-0.868-1.488c-0.406-1.414-0.604-2.893-1.085-4.276c-0.178-0.511-0.88-1.049-1.419-1.145
	c-0.322-0.057-0.983,0.652-1.158,1.137c-0.473,1.312-0.764,2.688-1.134,4.037c-0.288,1.049-3.362,2.827-4.375,2.583
	c-1.241-0.298-2.496-0.752-3.748-0.764c-6.221-0.057-12.443,0.023-18.665,0.031C59.323,47.83,55.162,47.83,51,47.83v0.723
	c10.151,0.055,20.303,0.115,30.455,0.225c0.986,0.011,2.187,0.56,2.898,1.257c1.282,1.257,2.239,1.477,3.454,0.009
	c0.463-0.56,1.146-0.984,1.805-1.323c1.058-0.545,2.178-0.965,3.343-1.469c0.135,2.012,2.053,1.603,3.46,1.345
	c1.41-0.257,2.702-1.153,4.17-1.827c1.548,4.44,3.177,9.214,4.911,13.949c0.207,0.569,0.994,0.928,1.512,1.383
	c0.359-0.513,0.932-0.983,1.043-1.546c0.829-4.176,1.553-8.374,2.335-12.56c1.157-6.187,2.335-12.37,3.505-18.555
	c0.514,0.394,0.668,0.791,0.747,1.203c1.219,6.404,2.413,12.813,3.666,19.21c0.102,0.516,0.581,0.957,0.885,1.434
	c0.525-0.357,1.193-0.609,1.549-1.092c0.729-0.987,1.289-2.099,1.919-3.158c0.014,0.23,0.027,0.462,0.04,0.692
	c2.043,0.324,4.075,0.78,6.13,0.939c2.166,0.169,4.36-0.047,6.527,0.108c1.14,0.081,2.233,0.688,3.378,0.872
	c0.659,0.106,1.655,0.074,1.993-0.324C141.058,48.932,141.018,47.746,140.658,47.371z"/>
</svg>
