<?xml version="1.0" standalone="no"?>
<!DOCTYPE svg PUBLIC "-//W3C//DTD SVG 20010904//EN"
 "http://www.w3.org/TR/2001/REC-SVG-20010904/DTD/svg10.dtd">
<svg version="1.0" xmlns="http://www.w3.org/2000/svg"
 width="492.000000pt" height="492.000000pt" viewBox="0 0 492.000000 492.000000"
 preserveAspectRatio="xMidYMid meet">
<metadata>
Created by potrace 1.11, written by Peter Selinger 2001-2013
</metadata>
<g transform="translate(0.000000,492.000000) scale(0.100000,-0.100000)"
fill="#000000" stroke="none">
<path d="M2269 4916 c-2 -2 -35 -6 -74 -10 -106 -10 -140 -15 -265 -43 -656
-143 -1224 -551 -1576 -1129 -179 -295 -292 -622 -338 -974 -13 -104 -15 -536
-2 -589 3 -14 8 -45 11 -70 3 -25 7 -57 10 -71 3 -14 7 -36 10 -50 61 -319
203 -652 394 -925 403 -576 1027 -953 1721 -1038 111 -14 521 -17 580 -4 14 3
48 8 75 12 202 24 475 106 700 210 333 154 695 449 907 739 21 28 43 57 49 64
58 68 218 363 277 513 29 73 80 226 88 263 2 10 8 33 13 50 54 170 86 617 61
841 -13 110 -21 169 -25 185 -2 8 -7 31 -10 50 -18 105 -80 314 -134 448 -43
109 -116 251 -188 366 -280 452 -697 801 -1191 997 -155 62 -411 129 -552 145
-30 3 -73 9 -95 13 -39 7 -439 13 -446 7z m251 -390 c0 10 87 -40 113 -65 32
-29 66 -89 74 -130 9 -44 9 -1222 0 -1285 -10 -70 -40 -121 -99 -168 -121 -98
-304 -56 -381 87 -22 40 -22 42 -22 715 l0 675 28 47 c41 68 94 107 169 122
37 8 75 10 91 5 15 -4 27 -6 27 -3z m-857 -614 c117 -52 179 -180 147 -299
-11 -38 -29 -63 -89 -123 -42 -41 -94 -91 -116 -111 -98 -86 -195 -218 -260
-354 -89 -184 -125 -355 -120 -565 2 -74 6 -146 9 -160 3 -14 11 -50 17 -80
19 -90 58 -199 107 -295 25 -49 48 -92 51 -95 4 -3 24 -32 46 -65 84 -124 264
-285 409 -364 104 -57 255 -113 336 -126 14 -2 48 -9 75 -14 85 -18 367 -6
465 18 176 45 343 123 474 224 168 129 336 358 405 549 59 165 75 260 75 448
0 132 -5 189 -29 280 -62 244 -178 443 -350 600 -131 120 -157 146 -176 176
-69 112 -27 270 91 341 104 63 227 42 335 -56 249 -229 372 -386 481 -616 40
-85 107 -270 118 -325 2 -14 9 -45 14 -70 32 -140 45 -391 28 -525 -4 -27 -8
-63 -10 -80 -47 -356 -247 -746 -515 -1004 -267 -256 -653 -443 -984 -476 -32
-4 -68 -8 -80 -11 -30 -7 -262 -6 -317 0 -25 3 -67 9 -95 12 -27 3 -88 15
-135 26 -47 11 -92 21 -100 23 -8 2 -46 15 -85 29 -38 15 -74 28 -79 29 -49
12 -348 177 -376 207 -3 3 -37 31 -77 62 -222 178 -406 427 -525 713 -34 83
-81 246 -93 323 -3 21 -7 48 -10 61 -23 120 -23 384 0 521 2 14 6 41 9 61 8
55 57 227 89 314 36 99 129 270 201 370 74 102 81 110 201 230 168 168 197
190 272 209 61 16 111 12 166 -12z"/>
</g>
</svg>
